<svg width="64" height="64" viewBox="0 0 64 64" fill="none" xmlns="http://www.w3.org/2000/svg">
<path d="M15.8164 18.4961L19.2164 29.8268M34.1684 44.7841L45.5044 48.1841" stroke="white" stroke-width="3" stroke-linecap="round" stroke-linejoin="round"/>
<path d="M31.1543 32.8456L46.5116 17.4883" stroke="white" stroke-width="3" stroke-linecap="round" stroke-linejoin="round"/>
<path d="M10.667 14.668C10.667 15.1933 10.7705 15.7134 10.9715 16.1987C11.1725 16.684 11.4671 17.125 11.8386 17.4964C12.21 17.8678 12.651 18.1625 13.1363 18.3635C13.6216 18.5645 14.1417 18.668 14.667 18.668C15.1923 18.668 15.7124 18.5645 16.1977 18.3635C16.683 18.1625 17.124 17.8678 17.4954 17.4964C17.8669 17.125 18.1615 16.684 18.3625 16.1987C18.5635 15.7134 18.667 15.1933 18.667 14.668C18.667 14.1427 18.5635 13.6225 18.3625 13.1372C18.1615 12.6519 17.8669 12.211 17.4954 11.8395C17.124 11.4681 16.683 11.1735 16.1977 10.9725C15.7124 10.7714 15.1923 10.668 14.667 10.668C14.1417 10.668 13.6216 10.7714 13.1363 10.9725C12.651 11.1735 12.21 11.4681 11.8386 11.8395C11.4671 12.211 11.1725 12.6519 10.9715 13.1372C10.7705 13.6225 10.667 14.1427 10.667 14.668Z" stroke="white" stroke-width="3" stroke-linecap="round" stroke-linejoin="round"/>
<path d="M45.333 14.668C45.333 15.7288 45.7544 16.7463 46.5046 17.4964C47.2547 18.2465 48.2721 18.668 49.333 18.668C50.3939 18.668 51.4113 18.2465 52.1614 17.4964C52.9116 16.7463 53.333 15.7288 53.333 14.668C53.333 13.6071 52.9116 12.5897 52.1614 11.8395C51.4113 11.0894 50.3939 10.668 49.333 10.668C48.2721 10.668 47.2547 11.0894 46.5046 11.8395C45.7544 12.5897 45.333 13.6071 45.333 14.668Z" stroke="white" stroke-width="3" stroke-linecap="round" stroke-linejoin="round"/>
<path d="M45.333 49.332C45.333 50.3929 45.7544 51.4103 46.5046 52.1605C47.2547 52.9106 48.2721 53.332 49.333 53.332C50.3939 53.332 51.4113 52.9106 52.1614 52.1605C52.9116 51.4103 53.333 50.3929 53.333 49.332C53.333 48.2712 52.9116 47.2538 52.1614 46.5036C51.4113 45.7535 50.3939 45.332 49.333 45.332C48.2721 45.332 47.2547 45.7535 46.5046 46.5036C45.7544 47.2538 45.333 48.2712 45.333 49.332Z" stroke="white" stroke-width="3" stroke-linecap="round" stroke-linejoin="round"/>
<path d="M10.667 41.332C10.667 44.5146 11.9313 47.5669 14.1817 49.8173C16.4321 52.0677 19.4844 53.332 22.667 53.332C25.8496 53.332 28.9018 52.0677 31.1523 49.8173C33.4027 47.5669 34.667 44.5146 34.667 41.332C34.667 38.1494 33.4027 35.0972 31.1523 32.8468C28.9018 30.5963 25.8496 29.332 22.667 29.332C19.4844 29.332 16.4321 30.5963 14.1817 32.8468C11.9313 35.0972 10.667 38.1494 10.667 41.332Z" stroke="white" stroke-width="3" stroke-linecap="round" stroke-linejoin="round"/>
</svg>
