<svg width="64" height="64" viewBox="0 0 64 64" fill="none" xmlns="http://www.w3.org/2000/svg">
<path d="M24 37.332C24 41.7507 31.1627 45.332 40 45.332C48.8373 45.332 56 41.7507 56 37.332C56 32.9134 48.8373 29.332 40 29.332C31.1627 29.332 24 32.9134 24 37.332Z" stroke="#324655" stroke-width="3" stroke-linecap="round" stroke-linejoin="round"/>
<path d="M24 37.332V47.9987C24 52.4147 31.1627 55.9987 40 55.9987C48.8373 55.9987 56 52.4147 56 47.9987V37.332" stroke="#324655" stroke-width="3" stroke-linecap="round" stroke-linejoin="round"/>
<path d="M8 16C8 18.8587 11.0507 21.4987 16 22.928C20.9493 24.3573 27.0507 24.3573 32 22.928C36.9493 21.4987 40 18.8587 40 16C40 13.1413 36.9493 10.5013 32 9.072C27.0507 7.64267 20.9493 7.64267 16 9.072C11.0507 10.5013 8 13.1413 8 16Z" stroke="#324655" stroke-width="3" stroke-linecap="round" stroke-linejoin="round"/>
<path d="M8 16V42.6667C8 45.0347 10.0587 46.5333 13.3333 48" stroke="#324655" stroke-width="3" stroke-linecap="round" stroke-linejoin="round"/>
<path d="M8 29.332C8 31.7 10.0587 33.1987 13.3333 34.6654" stroke="#324655" stroke-width="3" stroke-linecap="round" stroke-linejoin="round"/>
</svg>
