<svg width="64" height="64" viewBox="0 0 64 64" fill="none" xmlns="http://www.w3.org/2000/svg">
<g clip-path="url(#clip0_1111_4543)">
<path d="M10.668 21.3346V16.0013C10.668 14.5868 11.2299 13.2303 12.2301 12.2301C13.2303 11.2299 14.5868 10.668 16.0013 10.668H21.3346" stroke="white" stroke-width="3" stroke-linecap="round" stroke-linejoin="round"/>
<path d="M10.668 42.668V48.0013C10.668 49.4158 11.2299 50.7723 12.2301 51.7725C13.2303 52.7727 14.5868 53.3346 16.0013 53.3346H21.3346" stroke="white" stroke-width="3" stroke-linecap="round" stroke-linejoin="round"/>
<path d="M42.668 10.668H48.0013C49.4158 10.668 50.7723 11.2299 51.7725 12.2301C52.7727 13.2303 53.3346 14.5868 53.3346 16.0013V21.3346" stroke="white" stroke-width="3" stroke-linecap="round" stroke-linejoin="round"/>
<path d="M42.668 53.3346H48.0013C49.4158 53.3346 50.7723 52.7727 51.7725 51.7725C52.7727 50.7723 53.3346 49.4158 53.3346 48.0013V42.668" stroke="white" stroke-width="3" stroke-linecap="round" stroke-linejoin="round"/>
<path d="M22.9416 25.6258C23.448 25.1098 24.0522 24.6999 24.7189 24.42C25.3856 24.1402 26.1013 23.9961 26.8243 23.9961C27.5473 23.9961 28.2631 24.1402 28.9297 24.42C29.5964 24.6999 30.2006 25.1098 30.707 25.6258L32.0003 26.6658L33.3336 25.6098C33.8397 25.0994 34.4421 24.6947 35.1058 24.419C35.7696 24.1434 36.4815 24.0023 37.2002 24.0041C37.9189 24.0058 38.6301 24.1503 39.2926 24.4291C39.955 24.708 40.5554 25.1156 41.059 25.6284C42.0897 26.6776 42.6673 28.0896 42.6673 29.5604C42.6673 31.0313 42.0897 32.4432 41.059 33.4924L32.0003 42.6658L22.9416 33.4924C21.9101 32.4431 21.332 31.0306 21.332 29.5591C21.332 28.0877 21.9101 26.6751 22.9416 25.6258Z" stroke="white" stroke-width="3" stroke-linecap="round" stroke-linejoin="round"/>
</g>
<defs>
<clipPath id="clip0_1111_4543">
<rect width="64" height="64" fill="white"/>
</clipPath>
</defs>
</svg>
