<svg width="64" height="64" viewBox="0 0 64 64" fill="none" xmlns="http://www.w3.org/2000/svg">
<g clip-path="url(#clip0_1111_4586)">
<path d="M32.0013 14.668C29.1373 13.1053 25.1133 10.668 21.3346 10.668C15.7346 10.668 10.668 13.9933 10.668 24.0013C10.668 37.0653 13.484 46.428 17.7906 52.1C19.3186 54.116 23.044 53.4893 24.636 51.4706C25.6973 50.124 26.82 47.6333 28.0013 44.0013C28.78 41.9453 30.38 39.9906 32.0013 40.0013C33.6066 40.0013 35.228 41.9666 36.0013 44.0013C37.1826 47.6333 38.3053 50.1213 39.3666 51.468C40.9586 53.492 44.7 54.116 46.212 52.1C50.5186 46.428 53.3346 37.068 53.3346 24.0013C53.3346 14.028 48.2466 10.668 42.668 10.668C38.8733 10.668 34.8813 13.0973 32.0013 14.668Z" stroke="#324655" stroke-width="3" stroke-linecap="round" stroke-linejoin="round"/>
<path d="M32 14.668L40 18.668" stroke="#324655" stroke-width="3" stroke-linecap="round" stroke-linejoin="round"/>
</g>
<defs>
<clipPath id="clip0_1111_4586">
<rect width="64" height="64" fill="white"/>
</clipPath>
</defs>
</svg>
