<svg width="660" height="263" viewBox="0 0 660 263" fill="none" xmlns="http://www.w3.org/2000/svg">
    <mask id="path-1-outside-1_1112_6541" maskUnits="userSpaceOnUse" x="0" y="-0.207031" width="660" height="263"
          fill="black">
        <rect fill="white" y="-0.207031" width="660" height="263"/>
        <path d="M196.902 162.759L1.06 247.467V212.715L157.806 146.831L1.06 81.671V45.471L196.902 127.645V162.759ZM370.829 255.793H334.991V61.399C315.805 70.087 304.945 71.897 265.849 73.345V48.729H269.469C300.963 48.729 329.923 35.697 343.679 7.09896H370.829V255.793ZM658.848 132.713C658.848 222.127 603.462 261.585 545.18 261.585C460.11 261.585 432.598 188.823 432.598 129.817C432.598 60.675 472.78 1.66896 545.18 1.66896C642.558 1.66896 658.848 91.445 658.848 132.713ZM469.16 134.161C469.16 177.963 489.432 232.263 545.904 232.263C592.602 232.263 622.648 192.443 622.648 132.351C622.648 63.933 586.81 30.991 546.99 30.991C501.378 30.991 469.16 69.363 469.16 134.161Z"/>
    </mask>
    <path d="M196.902 162.759L1.06 247.467V212.715L157.806 146.831L1.06 81.671V45.471L196.902 127.645V162.759ZM370.829 255.793H334.991V61.399C315.805 70.087 304.945 71.897 265.849 73.345V48.729H269.469C300.963 48.729 329.923 35.697 343.679 7.09896H370.829V255.793ZM658.848 132.713C658.848 222.127 603.462 261.585 545.18 261.585C460.11 261.585 432.598 188.823 432.598 129.817C432.598 60.675 472.78 1.66896 545.18 1.66896C642.558 1.66896 658.848 91.445 658.848 132.713ZM469.16 134.161C469.16 177.963 489.432 232.263 545.904 232.263C592.602 232.263 622.648 192.443 622.648 132.351C622.648 63.933 586.81 30.991 546.99 30.991C501.378 30.991 469.16 69.363 469.16 134.161Z"
          fill="url(#paint0_linear_1112_6541)" fill-opacity="0.4" style="filter(#blur)"/>
    <path d="M196.902 162.759L197.299 163.677L197.902 163.416V162.759H196.902ZM1.06001 247.467H0.0600052V248.989L1.45699 248.385L1.06001 247.467ZM1.06001 212.715L0.67252 211.793L0.0600052 212.051V212.715H1.06001ZM157.806 146.831L158.193 147.753L160.399 146.826L158.19 145.908L157.806 146.831ZM1.06001 81.671H0.0600052V82.3382L0.676144 82.5943L1.06001 81.671ZM1.06001 45.471L1.44692 44.5488L0.0600052 43.9669V45.471H1.06001ZM196.902 127.645H197.902V126.98L197.289 126.723L196.902 127.645ZM196.902 162.759L196.505 161.841L0.663013 246.549L1.06001 247.467L1.45699 248.385L197.299 163.677L196.902 162.759ZM1.06001 247.467H2.06001V212.715H1.06001H0.0600052V247.467H1.06001ZM1.06001 212.715L1.44749 213.637L158.193 147.753L157.806 146.831L157.419 145.909L0.67252 211.793L1.06001 212.715ZM157.806 146.831L158.19 145.908L1.44386 80.7476L1.06001 81.671L0.676144 82.5943L157.422 147.754L157.806 146.831ZM1.06001 81.671H2.06001V45.471H1.06001H0.0600052V81.671H1.06001ZM1.06001 45.471L0.673088 46.3931L196.515 128.567L196.902 127.645L197.289 126.723L1.44692 44.5488L1.06001 45.471ZM196.902 127.645H195.902V162.759H196.902H197.902V127.645H196.902ZM370.829 255.793V256.793H371.829V255.793H370.829ZM334.991 255.793H333.991V256.793H334.991V255.793ZM334.991 61.399H335.991V59.8484L334.578 60.488L334.991 61.399ZM265.849 73.345H264.849V74.3827L265.886 74.3443L265.849 73.345ZM265.849 48.729V47.729H264.849V48.729H265.849ZM343.679 7.09896V6.09896H343.05L342.778 6.66548L343.679 7.09896ZM370.829 7.09896H371.829V6.09896H370.829V7.09896ZM370.829 255.793V254.793H334.991V255.793V256.793H370.829V255.793ZM334.991 255.793H335.991V61.399H334.991H333.991V255.793H334.991ZM334.991 61.399L334.578 60.488C325.039 64.8077 317.611 67.4002 307.717 69.1014C297.79 70.8082 285.363 71.6215 265.812 72.3456L265.849 73.345L265.886 74.3443C285.431 73.6204 297.982 72.8047 308.056 71.0725C318.162 69.3347 325.757 66.6783 335.403 62.3099L334.991 61.399ZM265.849 73.345H266.849V48.729H265.849H264.849V73.345H265.849ZM265.849 48.729V49.729H269.469V48.729V47.729H265.849V48.729ZM269.469 48.729V49.729C301.224 49.729 330.61 36.5755 344.58 7.53243L343.679 7.09896L342.778 6.66548C329.236 34.8184 300.702 47.729 269.469 47.729V48.729ZM343.679 7.09896V8.09896H370.829V7.09896V6.09896H343.679V7.09896ZM370.829 7.09896H369.829V255.793H370.829H371.829V7.09896H370.829ZM658.848 132.713H657.848C657.848 177.207 644.073 209.151 623.164 229.971C602.247 250.798 574.098 260.585 545.18 260.585V261.585V262.585C574.544 262.585 603.229 252.643 624.575 231.388C645.93 210.125 659.848 177.633 659.848 132.713H658.848ZM545.18 261.585V260.585C502.981 260.585 475.142 242.562 457.813 217.263C440.449 191.914 433.598 159.189 433.598 129.817H432.598H431.598C431.598 159.451 438.502 192.61 456.163 218.393C473.857 244.227 502.309 262.585 545.18 262.585V261.585ZM432.598 129.817H433.598C433.598 95.4297 443.591 63.6297 462.514 40.447C481.419 17.286 509.28 2.66896 545.18 2.66896V1.66896V0.668961C508.68 0.668961 480.25 15.5549 460.964 39.1824C441.696 62.7882 431.598 95.0622 431.598 129.817H432.598ZM545.18 1.66896V2.66896C593.488 2.66896 621.59 24.9019 637.669 52.2227C653.789 79.6128 657.848 112.174 657.848 132.713H658.848H659.848C659.848 111.984 655.762 79.0231 639.393 51.2083C622.982 23.324 594.25 0.668961 545.18 0.668961V1.66896ZM469.16 134.161H468.16C468.16 156.191 473.254 180.919 485.511 200.175C497.798 219.476 517.284 233.263 545.904 233.263V232.263V231.263C518.052 231.263 499.166 217.9 487.198 199.101C475.202 180.256 470.16 155.933 470.16 134.161H469.16ZM545.904 232.263V233.263C569.569 233.263 589.047 223.159 602.582 205.449C616.099 187.763 623.648 162.552 623.648 132.351H622.648H621.648C621.648 162.242 614.174 186.987 600.993 204.234C587.831 221.457 568.937 231.263 545.904 231.263V232.263ZM622.648 132.351H623.648C623.648 97.9729 614.643 72.3866 600.521 55.3755C586.39 38.3538 567.191 29.9909 546.99 29.9909V30.9909V31.9909C566.609 31.9909 585.239 40.0991 598.982 56.653C612.734 73.2173 621.648 98.311 621.648 132.351H622.648ZM546.99 30.9909V29.9909C523.876 29.9909 504.127 39.7259 490.181 57.6629C476.252 75.5777 468.16 101.607 468.16 134.161H469.16H470.16C470.16 101.917 478.177 76.3612 491.76 58.8905C505.326 41.442 524.492 31.9909 546.99 31.9909V30.9909Z"
          fill="url(#paint1_radial_1112_6541)" mask="url(#path-1-outside-1_1112_6541)"/>

    <defs>
        <filter id="blur" width="160%" height="160%" x="-30%" y="-30%">
            <!-- insert a neutral background color to prevent the backdrop showing
                 through blurred regions with alpa < 1 -->
            <feFlood flood-color="#fff" result="neutral"/>
            <feGaussianBlur in="SourceGraphic" stdDeviation="10" result="blurred" />
            <feMerge>
                <feMergeNode in="neutral" />
                <feMergeNode in="blurred" />
            </feMerge>
        </filter>
        <clipPath id="bgblur_0_1112_6541_clip_path" transform="translate(11.94 11.332)">
            <path d="M196.902 162.759L1.06 247.467V212.715L157.806 146.831L1.06 81.671V45.471L196.902 127.645V162.759ZM370.829 255.793H334.991V61.399C315.805 70.087 304.945 71.897 265.849 73.345V48.729H269.469C300.963 48.729 329.923 35.697 343.679 7.09896H370.829V255.793ZM658.848 132.713C658.848 222.127 603.462 261.585 545.18 261.585C460.11 261.585 432.598 188.823 432.598 129.817C432.598 60.675 472.78 1.66896 545.18 1.66896C642.558 1.66896 658.848 91.445 658.848 132.713ZM469.16 134.161C469.16 177.963 489.432 232.263 545.904 232.263C592.602 232.263 622.648 192.443 622.648 132.351C622.648 63.933 586.81 30.991 546.99 30.991C501.378 30.991 469.16 69.363 469.16 134.161Z"/>
        </clipPath>
        <linearGradient id="paint0_linear_1112_6541" x1="-46" y1="125.793" x2="671" y2="125.793"
                        gradientUnits="userSpaceOnUse">
            <stop stop-color="white"/>
            <stop offset="1" stop-color="#65C9DA" stop-opacity="0"/>
        </linearGradient>
        <radialGradient id="paint1_radial_1112_6541" cx="0" cy="0" r="1" gradientUnits="userSpaceOnUse"
                        gradientTransform="translate(674.75 154.293) rotate(-174.808) scale(657.448 657.448)">
            <stop stop-color="white"/>
            <stop offset="1" stop-color="#999999" stop-opacity="0"/>
        </radialGradient>
    </defs>
</svg>
