<svg width="34" height="34" viewBox="0 0 34 34" fill="none" xmlns="http://www.w3.org/2000/svg">
<path d="M16.9658 4.42188C23.8947 4.4219 29.5117 10.0389 29.5117 16.9678C29.5117 23.8966 23.8947 29.5136 16.9658 29.5137C10.037 29.5137 4.41995 23.8966 4.41992 16.9678C4.41992 10.0389 10.0369 4.42188 16.9658 4.42188ZM18.7891 9.52148C16.6637 9.52167 15.2764 10.8204 15.2764 13.167V15.2305H12.9199V17.9365H15.2764V24.4814H18.1816V17.9365H20.3447L20.7646 15.2305H18.1816V13.4707C18.1818 12.7309 18.5426 12.0078 19.6953 12.0078H20.8857V9.7041C20.1923 9.59177 19.4913 9.5302 18.7891 9.52148Z" fill="white"/>
</svg>
