<svg width="34" height="34" viewBox="0 0 34 34" fill="none" xmlns="http://www.w3.org/2000/svg">
<path d="M16.9658 4.42188C23.8947 4.4219 29.5117 10.0389 29.5117 16.9678C29.5117 23.8966 23.8947 29.5136 16.9658 29.5137C10.037 29.5137 4.41995 23.8966 4.41992 16.9678C4.41992 10.0389 10.0369 4.42188 16.9658 4.42188ZM20.0127 14.3984C18.5312 14.3984 17.8673 15.2142 17.4961 15.7871V14.5957H14.7031C14.7394 15.3806 14.7035 22.9284 14.7031 23.0049H17.4951V18.3096C17.4951 18.0586 17.5142 17.8072 17.5879 17.6279C17.7897 17.1256 18.2489 16.6055 19.0205 16.6055C20.0306 16.6055 20.4346 17.3763 20.4346 18.5068V23.0049H23.2275V18.1836C23.2275 15.6008 21.8499 14.3985 20.0127 14.3984ZM10.3643 23.0049H13.1572V14.5957H10.3643V23.0049ZM11.7803 10.542C10.8245 10.542 10.2002 11.1698 10.2002 11.9951C10.2002 12.8021 10.8059 13.4482 11.7432 13.4482H11.7617C12.7352 13.4481 13.3408 12.802 13.3408 11.9951C13.3226 11.1698 12.7352 10.5421 11.7803 10.542Z" fill="white"/>
</svg>
