<svg width="34" height="35" viewBox="0 0 34 35" fill="none" xmlns="http://www.w3.org/2000/svg">
<path d="M16.9658 4.92969C23.8947 4.92971 29.5117 10.5467 29.5117 17.4756C29.5117 24.4044 23.8947 30.0215 16.9658 30.0215C10.037 30.0215 4.41995 24.4044 4.41992 17.4756C4.41992 10.5467 10.0369 4.92969 16.9658 4.92969Z" fill="white"/>
<g clip-path="url(#clip0_1914_6529)">
<path d="M10.334 14.8424C10.334 14.1352 10.6149 13.4569 11.115 12.9568C11.6151 12.4567 12.2934 12.1758 13.0007 12.1758H21.0007C21.7079 12.1758 22.3862 12.4567 22.8863 12.9568C23.3864 13.4569 23.6673 14.1352 23.6673 14.8424V20.1758C23.6673 20.883 23.3864 21.5613 22.8863 22.0614C22.3862 22.5615 21.7079 22.8424 21.0007 22.8424H13.0007C12.2934 22.8424 11.6151 22.5615 11.115 22.0614C10.6149 21.5613 10.334 20.883 10.334 20.1758V14.8424Z" stroke="#425666" stroke-width="1.5" stroke-linecap="round" stroke-linejoin="round"/>
<path d="M15.666 15.5078L18.9993 17.5078L15.666 19.5078V15.5078Z" stroke="#425666" stroke-width="1.5" stroke-linecap="round" stroke-linejoin="round"/>
</g>
<defs>
<clipPath id="clip0_1914_6529">
<rect width="16" height="16" fill="white" transform="translate(9 9.50781)"/>
</clipPath>
</defs>
</svg>
