<svg width="107" height="128" viewBox="0 0 107 128" fill="none" xmlns="http://www.w3.org/2000/svg">
<g>
<mask id="path-1-outside-1_1111_4150" maskUnits="userSpaceOnUse" x="0" y="0" width="107" height="128" fill="black">
<rect fill="white" width="107" height="128"/>
<path d="M105.2 127H3.68V110.08C19.88 101.98 36.08 93.88 51.56 84.34C65.78 75.52 84.14 64.54 84.14 45.46C84.14 26.74 69.38 16.3 51.74 16.3C47.96 16.3 33.56 16.84 25.46 27.64C19.88 35.02 19.52 43.12 19.16 51.76L1.7 49.06C2.06 45.1 2.24 41.14 3.14 37.18C4.22 31.78 7.64 21.16 18.8 12.34C24.38 8.02 35.18 1.36 52.46 1.36C57.68 1.36 71.36 1.71999 83.78 10.36C94.94 18.1 102.14 31.42 102.14 45.1C102.14 50.68 101.24 62.02 92.06 72.82C77.84 89.56 44.18 105.76 28.16 112.24H105.2V127Z"/>
</mask>
<path d="M105.2 127H3.68V110.08C19.88 101.98 36.08 93.88 51.56 84.34C65.78 75.52 84.14 64.54 84.14 45.46C84.14 26.74 69.38 16.3 51.74 16.3C47.96 16.3 33.56 16.84 25.46 27.64C19.88 35.02 19.52 43.12 19.16 51.76L1.7 49.06C2.06 45.1 2.24 41.14 3.14 37.18C4.22 31.78 7.64 21.16 18.8 12.34C24.38 8.02 35.18 1.36 52.46 1.36C57.68 1.36 71.36 1.71999 83.78 10.36C94.94 18.1 102.14 31.42 102.14 45.1C102.14 50.68 101.24 62.02 92.06 72.82C77.84 89.56 44.18 105.76 28.16 112.24H105.2V127Z" fill="url(#paint0_linear_1111_4150)" fill-opacity="0.4"/>
<path d="M105.2 127V128H106.2V127H105.2ZM3.68 127H2.68V128H3.68V127ZM3.68 110.08L3.23279 109.186L2.68 109.462V110.08H3.68ZM51.56 84.34L52.0847 85.1913L52.0871 85.1898L51.56 84.34ZM25.46 27.64L26.2577 28.2431L26.26 28.24L25.46 27.64ZM19.16 51.76L19.0072 52.7483L20.1126 52.9192L20.1591 51.8016L19.16 51.76ZM1.7 49.06L0.704107 48.9695L0.619083 49.9047L1.54718 50.0482L1.7 49.06ZM3.14 37.18L4.11513 37.4016L4.11802 37.3889L4.12058 37.3761L3.14 37.18ZM18.8 12.34L18.1878 11.5492L18.1799 11.5554L18.8 12.34ZM83.78 10.36L83.2089 11.1809L83.2101 11.1817L83.78 10.36ZM92.06 72.82L91.2981 72.1723L91.2979 72.1726L92.06 72.82ZM28.16 112.24L27.785 111.313L28.16 113.24V112.24ZM105.2 112.24H106.2V111.24H105.2V112.24ZM105.2 127V126H3.68V127V128H105.2V127ZM3.68 127H4.68V110.08H3.68H2.68V127H3.68ZM3.68 110.08L4.12721 110.974C20.3207 102.878 36.5606 94.7584 52.0847 85.1913L51.56 84.34L51.0354 83.4887C35.5994 93.0015 19.4393 101.082 3.23279 109.186L3.68 110.08ZM51.56 84.34L52.0871 85.1898C59.1708 80.7961 67.4199 75.7872 73.882 69.4621C80.3641 63.1175 85.14 55.3609 85.14 45.46H84.14H83.14C83.14 54.6391 78.7359 61.9125 72.483 68.0329C66.2101 74.1728 58.1692 79.0639 51.0329 83.4902L51.56 84.34ZM84.14 45.46H85.14C85.14 35.8126 81.3254 28.2393 75.1981 23.0942C69.0902 17.9655 60.7487 15.3 51.74 15.3V16.3V17.3C60.3713 17.3 68.2298 19.8545 73.9119 24.6258C79.5746 29.3807 83.14 36.3874 83.14 45.46H84.14ZM51.74 16.3V15.3C49.8051 15.3 45.1537 15.4374 39.9397 16.9601C34.7253 18.4829 28.8814 21.4115 24.66 27.04L25.46 27.64L26.26 28.24C30.1386 23.0685 35.5447 20.3271 40.5003 18.8799C45.4563 17.4326 49.8949 17.3 51.74 17.3V16.3ZM25.46 27.64L24.6623 27.0369C18.8681 34.7002 18.5193 43.1149 18.1609 51.7184L19.16 51.76L20.1591 51.8016C20.5207 43.1251 20.8919 35.3398 26.2577 28.2431L25.46 27.64ZM19.16 51.76L19.3128 50.7717L1.85282 48.0717L1.7 49.06L1.54718 50.0482L19.0072 52.7483L19.16 51.76ZM1.7 49.06L2.69589 49.1505C3.06132 45.1309 3.2345 41.2764 4.11513 37.4016L3.14 37.18L2.16487 36.9584C1.2455 41.0036 1.05868 45.0691 0.704107 48.9695L1.7 49.06ZM3.14 37.18L4.12058 37.3761C5.17084 32.1248 8.50393 21.7518 19.4201 13.1246L18.8 12.34L18.1799 11.5554C6.77608 20.5682 3.26917 31.4352 2.15942 36.9839L3.14 37.18ZM18.8 12.34L19.4122 13.1307C24.8745 8.90179 35.4648 2.36 52.46 2.36V1.36V0.359998C34.8952 0.359998 23.8855 7.13821 18.1878 11.5493L18.8 12.34ZM52.46 1.36V2.36C57.6354 2.36 71.0519 2.72381 83.2089 11.1809L83.78 10.36L84.3511 9.53909C71.6681 0.716173 57.7246 0.359998 52.46 0.359998V1.36ZM83.78 10.36L83.2101 11.1817C94.1089 18.7406 101.14 31.7577 101.14 45.1H102.14H103.14C103.14 31.0823 95.7711 17.4594 84.3499 9.53829L83.78 10.36ZM102.14 45.1H101.14C101.14 50.5655 100.26 61.6287 91.2981 72.1723L92.06 72.82L92.8219 73.4676C102.22 62.4113 103.14 50.7945 103.14 45.1H102.14ZM92.06 72.82L91.2979 72.1726C84.3059 80.4036 72.4637 88.5683 60.2897 95.5088C48.1394 102.436 35.7606 108.087 27.785 111.313L28.16 112.24L28.535 113.167C36.5794 109.913 49.0406 104.224 61.2803 97.2462C73.4963 90.2817 85.5941 81.9764 92.8221 73.4674L92.06 72.82ZM28.16 112.24V113.24H105.2V112.24V111.24H28.16V112.24ZM105.2 112.24H104.2V127H105.2H106.2V112.24H105.2Z" fill="url(#paint1_radial_1111_4150)" mask="url(#path-1-outside-1_1111_4150)"/>
</g>
<defs>
<clipPath id="bgblur_0_1111_4150_clip_path" transform="translate(11.3809 11.6406)"><path d="M105.2 127H3.68V110.08C19.88 101.98 36.08 93.88 51.56 84.34C65.78 75.52 84.14 64.54 84.14 45.46C84.14 26.74 69.38 16.3 51.74 16.3C47.96 16.3 33.56 16.84 25.46 27.64C19.88 35.02 19.52 43.12 19.16 51.76L1.7 49.06C2.06 45.1 2.24 41.14 3.14 37.18C4.22 31.78 7.64 21.16 18.8 12.34C24.38 8.02 35.18 1.36 52.46 1.36C57.68 1.36 71.36 1.71999 83.78 10.36C94.94 18.1 102.14 31.42 102.14 45.1C102.14 50.68 101.24 62.02 92.06 72.82C77.84 89.56 44.18 105.76 28.16 112.24H105.2V127Z"/>
</clipPath><linearGradient id="paint0_linear_1111_4150" x1="-10" y1="63.5" x2="118" y2="63.5" gradientUnits="userSpaceOnUse">
<stop stop-color="white"/>
<stop offset="1" stop-color="white" stop-opacity="0"/>
</linearGradient>
<radialGradient id="paint1_radial_1111_4150" cx="0" cy="0" r="1" gradientUnits="userSpaceOnUse" gradientTransform="translate(118.669 80.5731) rotate(-163.041) scale(122.201 378.274)">
<stop stop-color="white"/>
<stop offset="1" stop-color="#999999" stop-opacity="0"/>
</radialGradient>
</defs>
</svg>
