<svg width="111" height="132" viewBox="0 0 111 132" fill="none" xmlns="http://www.w3.org/2000/svg">
<g>
<mask id="path-1-outside-1_1111_4154" maskUnits="userSpaceOnUse" x="0" y="0" width="111" height="132" fill="black">
<rect fill="white" width="111" height="132"/>
<path d="M42.14 69.86V56.54H55.64C67.34 56.54 86.24 55.1 86.24 38C86.24 23.24 72.38 15.68 56.36 15.68C29.72 15.68 23.06 32.24 22.88 39.8L6.32 36.74C9.74 21.26 18.92 1.81999 56.36 1.81999C75.98 1.81999 104.6 9.02 104.6 36.56C104.6 41.6 103.52 55.46 85.88 61.4C95.24 65.36 109.64 72.56 109.64 92.54C109.64 123.32 77.78 130.52 57.62 130.52C27.56 130.52 7.22 121.16 1.46 94.52L18.38 90.56C21.8 112.16 41.24 115.94 57.62 115.94C82.1 115.94 91.1 104.24 91.1 92.18C91.1 76.16 79.22 69.86 58.88 69.86H42.14Z"/>
</mask>
<path d="M42.14 69.86V56.54H55.64C67.34 56.54 86.24 55.1 86.24 38C86.24 23.24 72.38 15.68 56.36 15.68C29.72 15.68 23.06 32.24 22.88 39.8L6.32 36.74C9.74 21.26 18.92 1.81999 56.36 1.81999C75.98 1.81999 104.6 9.02 104.6 36.56C104.6 41.6 103.52 55.46 85.88 61.4C95.24 65.36 109.64 72.56 109.64 92.54C109.64 123.32 77.78 130.52 57.62 130.52C27.56 130.52 7.22 121.16 1.46 94.52L18.38 90.56C21.8 112.16 41.24 115.94 57.62 115.94C82.1 115.94 91.1 104.24 91.1 92.18C91.1 76.16 79.22 69.86 58.88 69.86H42.14Z" fill="url(#paint0_linear_1111_4154)" fill-opacity="0.4"/>
<path d="M42.14 69.86H41.14V70.86H42.14V69.86ZM42.14 56.54V55.54H41.14V56.54H42.14ZM22.88 39.8L22.6983 40.7834L23.8518 40.9965L23.8797 39.8238L22.88 39.8ZM6.32 36.74L5.34355 36.5243L5.1202 37.5352L6.13829 37.7233L6.32 36.74ZM85.88 61.4L85.5609 60.4523L83.0622 61.2937L85.4904 62.321L85.88 61.4ZM1.46 94.52L1.23212 93.5463L0.274809 93.7704L0.482586 94.7313L1.46 94.52ZM18.38 90.56L19.3677 90.4036L19.1995 89.3412L18.1521 89.5863L18.38 90.56ZM42.14 69.86H43.14V56.54H42.14H41.14V69.86H42.14ZM42.14 56.54V57.54H55.64V56.54V55.54H42.14V56.54ZM55.64 56.54V57.54C61.4975 57.54 69.3195 57.1859 75.7018 54.6098C78.908 53.3157 81.8031 51.4408 83.8965 48.7209C85.9996 45.9884 87.24 42.4719 87.24 38H86.24H85.24C85.24 42.0781 84.1179 45.1541 82.3116 47.501C80.4956 49.8605 77.9345 51.5518 74.9532 52.7552C68.9605 55.174 61.4825 55.54 55.64 55.54V56.54ZM86.24 38H87.24C87.24 30.257 83.5837 24.3814 77.8716 20.4793C72.1937 16.6005 64.5101 14.68 56.36 14.68V15.68V16.68C64.2299 16.68 71.4864 18.5395 76.7434 22.1307C81.9663 25.6986 85.24 30.983 85.24 38H86.24ZM56.36 15.68V14.68C42.8192 14.68 34.2215 18.8964 28.9857 24.2026C23.7752 29.4832 21.9759 35.7624 21.8803 39.7762L22.88 39.8L23.8797 39.8238C23.9642 36.2775 25.5848 30.4968 30.4093 25.6074C35.2085 20.7436 43.2608 16.68 56.36 16.68V15.68ZM22.88 39.8L23.0617 38.8166L6.50171 35.7566L6.32 36.74L6.13829 37.7233L22.6983 40.7834L22.88 39.8ZM6.32 36.74L7.29645 36.9557C8.98707 29.3035 12.0745 20.8063 19.2587 14.2117C26.4285 7.63034 37.8161 2.81999 56.36 2.81999V1.81999V0.819994C37.4639 0.819994 25.5415 5.72964 17.9063 12.7383C10.2855 19.7337 7.07294 28.6965 5.34355 36.5243L6.32 36.74ZM56.36 1.81999V2.81999C66.0771 2.81999 77.9518 4.60737 87.3585 9.74031C96.7097 14.843 103.6 23.2243 103.6 36.56H104.6H105.6C105.6 22.3557 98.1803 13.367 88.3165 7.98468C78.5082 2.63262 66.2629 0.819994 56.36 0.819994V1.81999ZM104.6 36.56H103.6C103.6 39.0123 103.335 43.5537 100.965 48.187C98.6103 52.7888 94.1372 57.5644 85.5609 60.4523L85.88 61.4L86.1991 62.3477C95.2628 59.2956 100.15 54.1711 102.745 49.098C105.325 44.0563 105.6 39.1477 105.6 36.56H104.6ZM85.88 61.4L85.4904 62.321C90.1526 64.2935 95.9371 67.022 100.561 71.6679C105.153 76.281 108.64 82.8254 108.64 92.54H109.64H110.64C110.64 82.2746 106.927 75.229 101.979 70.2571C97.0629 65.3179 90.9674 62.4665 86.2696 60.479L85.88 61.4ZM109.64 92.54H108.64C108.64 107.495 100.941 116.685 90.7158 122.192C80.432 127.731 67.6117 129.52 57.62 129.52V130.52V131.52C67.7883 131.52 80.978 129.709 91.6642 123.953C102.409 118.165 110.64 108.365 110.64 92.54H109.64ZM57.62 130.52V129.52C42.673 129.52 30.2797 127.189 20.9375 121.65C11.6397 116.137 5.26519 107.387 2.43741 94.3087L1.46 94.52L0.482586 94.7313C3.41481 108.293 10.0903 117.543 19.9175 123.37C29.7003 129.171 42.507 131.52 57.62 131.52V130.52ZM1.46 94.52L1.68789 95.4937L18.6079 91.5337L18.38 90.56L18.1521 89.5863L1.23212 93.5463L1.46 94.52ZM18.38 90.56L17.3923 90.7164C19.156 101.855 25.088 108.465 32.695 112.246C40.2383 115.994 49.3796 116.94 57.62 116.94V115.94V114.94C49.4804 114.94 40.7117 113.996 33.585 110.454C26.522 106.945 21.024 100.865 19.3677 90.4036L18.38 90.56ZM57.62 115.94V116.94C70.008 116.94 78.6344 113.98 84.1808 109.35C89.7447 104.706 92.1 98.4704 92.1 92.18H91.1H90.1C90.1 97.9496 87.9553 103.594 82.8992 107.815C77.8256 112.05 69.712 114.94 57.62 114.94V115.94ZM91.1 92.18H92.1C92.1 83.8799 88.997 77.9606 83.1619 74.1737C77.4073 70.439 69.1183 68.86 58.88 68.86V69.86V70.86C68.9817 70.86 76.8027 72.4309 82.0731 75.8513C87.263 79.2194 90.1 84.4601 90.1 92.18H91.1ZM58.88 69.86V68.86H42.14V69.86V70.86H58.88V69.86Z" fill="url(#paint1_radial_1111_4154)" mask="url(#path-1-outside-1_1111_4154)"/>
</g>
<defs>
<clipPath id="bgblur_0_1111_4154_clip_path" transform="translate(11.7256 11.1797)"><path d="M42.14 69.86V56.54H55.64C67.34 56.54 86.24 55.1 86.24 38C86.24 23.24 72.38 15.68 56.36 15.68C29.72 15.68 23.06 32.24 22.88 39.8L6.32 36.74C9.74 21.26 18.92 1.81999 56.36 1.81999C75.98 1.81999 104.6 9.02 104.6 36.56C104.6 41.6 103.52 55.46 85.88 61.4C95.24 65.36 109.64 72.56 109.64 92.54C109.64 123.32 77.78 130.52 57.62 130.52C27.56 130.52 7.22 121.16 1.46 94.52L18.38 90.56C21.8 112.16 41.24 115.94 57.62 115.94C82.1 115.94 91.1 104.24 91.1 92.18C91.1 76.16 79.22 69.86 58.88 69.86H42.14Z"/>
</clipPath><linearGradient id="paint0_linear_1111_4154" x1="-7" y1="64.5" x2="121" y2="64.5" gradientUnits="userSpaceOnUse">
<stop stop-color="white"/>
<stop offset="1" stop-color="white" stop-opacity="0"/>
</linearGradient>
<radialGradient id="paint1_radial_1111_4154" cx="0" cy="0" r="1" gradientUnits="userSpaceOnUse" gradientTransform="translate(121.669 81.5731) rotate(-163.041) scale(122.201 378.274)">
<stop stop-color="white"/>
<stop offset="1" stop-color="#999999" stop-opacity="0"/>
</radialGradient>
</defs>
</svg>
