<svg width="113" height="126" viewBox="0 0 113 126" fill="none" xmlns="http://www.w3.org/2000/svg">
<g>
<mask id="path-1-outside-1_1111_4158" maskUnits="userSpaceOnUse" x="0" y="0" width="113" height="126" fill="black">
<rect fill="white" width="113" height="126"/>
<path d="M111.9 95.12H90.66V125H73.74V95.12H1.74V80.9L76.44 1.16H90.48V80.9H111.9V95.12ZM73.74 80.9V24.02C70.68 27.8 68.16 30.68 21.18 80.9H73.74Z"/>
</mask>
<path d="M111.9 95.12H90.66V125H73.74V95.12H1.74V80.9L76.44 1.16H90.48V80.9H111.9V95.12ZM73.74 80.9V24.02C70.68 27.8 68.16 30.68 21.18 80.9H73.74Z" fill="url(#paint0_linear_1111_4158)" fill-opacity="0.4"/>
<path d="M111.9 95.12V96.12H112.9V95.12H111.9ZM90.66 95.12V94.12H89.66V95.12H90.66ZM90.66 125V126H91.66V125H90.66ZM73.74 125H72.74V126H73.74V125ZM73.74 95.12H74.74V94.12H73.74V95.12ZM1.74 95.12H0.74V96.12H1.74V95.12ZM1.74 80.9L1.01021 80.2163L0.74 80.5048V80.9H1.74ZM76.44 1.16V0.159996H76.0066L75.7102 0.476329L76.44 1.16ZM90.48 1.16H91.48V0.159996H90.48V1.16ZM90.48 80.9H89.48V81.9H90.48V80.9ZM111.9 80.9H112.9V79.9H111.9V80.9ZM73.74 80.9V81.9H74.74V80.9H73.74ZM73.74 24.02H74.74V21.1954L72.9628 23.3908L73.74 24.02ZM21.18 80.9L20.4497 80.2168L18.8752 81.9H21.18V80.9ZM111.9 95.12V94.12H90.66V95.12V96.12H111.9V95.12ZM90.66 95.12H89.66V125H90.66H91.66V95.12H90.66ZM90.66 125V124H73.74V125V126H90.66V125ZM73.74 125H74.74V95.12H73.74H72.74V125H73.74ZM73.74 95.12V94.12H1.74V95.12V96.12H73.74V95.12ZM1.74 95.12H2.74V80.9H1.74H0.74V95.12H1.74ZM1.74 80.9L2.46979 81.5837L77.1698 1.84366L76.44 1.16L75.7102 0.476329L1.01021 80.2163L1.74 80.9ZM76.44 1.16V2.16H90.48V1.16V0.159996H76.44V1.16ZM90.48 1.16H89.48V80.9H90.48H91.48V1.16H90.48ZM90.48 80.9V81.9H111.9V80.9V79.9H90.48V80.9ZM111.9 80.9H110.9V95.12H111.9H112.9V80.9H111.9ZM73.74 80.9H74.74V24.02H73.74H72.74V80.9H73.74ZM73.74 24.02L72.9628 23.3908C69.9321 27.1345 67.4495 29.9757 20.4497 80.2168L21.18 80.9L21.9103 81.5832C68.8705 31.3843 71.4279 28.4655 74.5173 24.6492L73.74 24.02ZM21.18 80.9V81.9H73.74V80.9V79.9H21.18V80.9Z" fill="url(#paint1_radial_1111_4158)" mask="url(#path-1-outside-1_1111_4158)"/>
</g>
<defs>
<clipPath id="bgblur_0_1111_4158_clip_path" transform="translate(11.2598 11.8398)"><path d="M111.9 95.12H90.66V125H73.74V95.12H1.74V80.9L76.44 1.16H90.48V80.9H111.9V95.12ZM73.74 80.9V24.02C70.68 27.8 68.16 30.68 21.18 80.9H73.74Z"/>
</clipPath><linearGradient id="paint0_linear_1111_4158" x1="-6" y1="61.5" x2="122" y2="61.5" gradientUnits="userSpaceOnUse">
<stop stop-color="white"/>
<stop offset="1" stop-color="white" stop-opacity="0"/>
</linearGradient>
<radialGradient id="paint1_radial_1111_4158" cx="0" cy="0" r="1" gradientUnits="userSpaceOnUse" gradientTransform="translate(122.669 78.5731) rotate(-163.041) scale(122.201 378.274)">
<stop stop-color="white"/>
<stop offset="1" stop-color="#999999" stop-opacity="0"/>
</radialGradient>
</defs>
</svg>
