<svg width="1216" height="163" viewBox="0 0 1216 163" fill="none" xmlns="http://www.w3.org/2000/svg">
<path d="M0 42.5844V120.611L23 131V127.541V87.4033V67.3956V35.4589V32L0 42.5844Z" fill="#65CADA"/>
<path d="M568.82 76.5575L539.044 43.0195H523.656V120.662H537.656V63.824L568.82 98.7742L599.875 63.7145V120.662H613.984V43.0195H598.499L568.82 76.5575Z" fill="white"/>
<path d="M649.007 43.0195H635.117V120.662H649.007V43.0195Z" fill="white"/>
<path d="M732.407 99.7359L685.515 43.0195H670.14V120.662H684.139V63.824L731.129 120.662H746.516V43.0195H732.407V99.7359Z" fill="white"/>
<path d="M767.638 120.662H837.964V106.322H781.747V89.0597H826.935V74.6098H781.747V57.3599H837.964V43.0195H767.638V120.662Z" fill="white"/>
<path d="M919.015 78.4929C919.015 78.846 918.881 79.1381 918.589 79.3572C918.309 79.5764 917.992 79.6859 917.627 79.6859H872.013C871.66 79.6859 871.344 79.5764 871.064 79.3572C870.844 79.1381 870.747 78.8581 870.747 78.4929V58.6501C870.747 58.2971 870.857 58.0049 871.064 57.7858C871.344 57.4936 871.66 57.3597 872.013 57.3597H917.627C917.98 57.3597 918.297 57.5058 918.589 57.7858C918.869 58.0049 919.015 58.2849 919.015 58.6501V78.4929ZM925.698 45.1741C923.434 43.8106 920.963 43.1289 918.272 43.1289H856.748V120.662H870.747V94.1359L885.879 94.0993L914.17 120.662H933.124V119.079L906.464 94.0507L918.272 94.0263C920.963 94.0263 923.434 93.3811 925.698 92.0907C927.963 90.7273 929.764 88.8891 931.103 86.5883C932.442 84.2875 933.124 81.7676 933.124 79.0407V58.1145C933.124 55.3876 932.455 52.9042 931.103 50.6765C929.764 48.3757 927.963 46.5375 925.698 45.1741Z" fill="white"/>
<path d="M1013.92 79.6861H965.652V58.6503C965.652 58.2851 965.761 58.0051 965.968 57.786C966.248 57.4938 966.565 57.3599 966.918 57.3599H1012.53C1012.89 57.3599 1013.2 57.506 1013.49 57.786C1013.77 58.0051 1013.92 58.2851 1013.92 58.6503V79.6861ZM1020.6 45.0647C1018.34 43.7012 1015.87 43.0195 1013.18 43.0195H966.394C963.704 43.0195 961.233 43.7012 958.969 45.0647C956.777 46.4281 955.012 48.2663 953.661 50.5671C952.322 52.7949 951.64 55.2782 951.64 58.0051V120.662H965.64V93.9169H1013.91V120.662H1028.02V58.0051C1028.02 55.2782 1027.35 52.7949 1026 50.5671C1024.66 48.2663 1022.86 46.4281 1020.59 45.0647" fill="white"/>
<path d="M1064.2 42.9102H1050.18V120.662H1126.56V106.322H1064.2V42.9102Z" fill="white"/>
<path d="M1215.98 63.9336V58.0051C1215.98 55.2782 1215.31 52.7949 1213.95 50.5671C1212.62 48.2663 1210.81 46.4281 1208.55 45.0647C1206.36 43.7012 1203.91 43.0195 1201.23 43.0195H1154.35C1151.66 43.0195 1149.19 43.7012 1146.93 45.0647C1144.74 46.4281 1142.97 48.2663 1141.62 50.5671C1140.28 52.7949 1139.6 55.2782 1139.6 58.0051V73.9646C1139.6 76.7645 1140.27 79.3209 1141.62 81.6217C1142.96 83.8494 1144.74 85.6511 1146.93 87.0146C1149.19 88.378 1151.66 89.0597 1154.35 89.0597H1200.6C1200.95 89.0597 1201.23 89.1693 1201.45 89.3884C1201.73 89.6075 1201.88 89.8875 1201.88 90.2527V105.031C1201.88 105.384 1201.73 105.713 1201.45 106.005C1201.25 106.224 1200.95 106.334 1200.6 106.334H1154.88C1154.52 106.334 1154.21 106.224 1153.93 106.005C1153.72 105.713 1153.61 105.397 1153.61 105.031V99.748H1139.61V105.677C1139.61 108.403 1140.28 110.923 1141.63 113.224C1142.97 115.452 1144.75 117.254 1146.94 118.617C1149.2 119.98 1151.68 120.662 1154.37 120.662H1201.25C1203.94 120.662 1206.37 119.98 1208.56 118.617C1210.83 117.254 1212.63 115.452 1213.97 113.224C1215.31 110.923 1215.99 108.403 1215.99 105.677V89.7171C1215.99 86.9172 1215.32 84.3973 1213.97 82.1695C1212.63 79.8687 1210.83 78.0305 1208.56 76.6671C1206.37 75.3037 1203.92 74.6219 1201.25 74.6219H1154.89C1154.54 74.6219 1154.22 74.5124 1153.94 74.2933C1153.73 74.0741 1153.62 73.7941 1153.62 73.4289V58.6503C1153.62 58.2851 1153.73 58.0051 1153.94 57.786C1154.22 57.4938 1154.54 57.3599 1154.89 57.3599H1200.61C1200.97 57.3599 1201.25 57.506 1201.46 57.786C1201.74 58.0051 1201.89 58.2851 1201.89 58.6503V63.9336H1216H1215.98Z" fill="white"/>
<path d="M138.937 99.8321L78.8001 43.067V42.9453H78.6662H70.8021H63.6562V120.661H78.8001V64.0785L138.742 120.661H138.937H141.749H154.081V42.9453H138.937V99.8321Z" fill="white"/>
<path d="M355.321 77.5452C355.321 78.1661 355.102 78.7139 354.725 79.0912C354.347 79.4808 353.86 79.6877 353.178 79.6877H297.46C296.888 79.6877 296.377 79.493 295.89 79.0669C295.756 78.9208 295.598 78.653 295.488 78.3121C295.379 77.9591 295.318 77.5817 295.318 77.2652V60.6484C295.318 60.0641 295.5 59.6015 295.902 59.1876C296.401 58.6763 296.913 58.4693 297.46 58.4693H353.178C353.824 58.4693 354.298 58.7006 354.688 59.151L354.712 59.1754V59.1997C355.126 59.6015 355.321 60.0762 355.321 60.6606V77.5574V77.5452ZM362.138 45.4559C359.533 43.8611 356.648 43.082 353.532 43.082H280.15V120.664H295.306V95.3429L322.453 95.282H323.086L349.977 120.664H370.587V119.093L345.314 95.2333L346.848 95.209H353.544C356.648 95.209 359.521 94.4542 362.126 92.9569V92.9325C364.707 91.3621 366.752 89.2805 368.225 86.724C369.771 84.0945 370.562 81.672 370.562 78.4704V60.2588C370.562 57.1668 369.783 54.3425 368.225 51.7739C366.752 49.1323 364.707 47.0141 362.126 45.4315" fill="white"/>
<path d="M463.215 103.082C463.215 103.667 463.02 104.19 462.606 104.689C462.229 105.055 461.742 105.261 461.072 105.261H405.233C404.673 105.261 404.21 105.079 403.82 104.689C403.394 104.19 403.212 103.667 403.212 103.082V60.5238C403.212 59.9395 403.406 59.4769 403.796 59.063L403.82 59.0387L403.845 59.0143C404.259 58.5396 404.697 58.3326 405.233 58.3326H461.072C461.718 58.3326 462.192 58.5517 462.582 59.0143L462.606 59.0387L462.631 59.063C463.032 59.4648 463.215 59.9273 463.215 60.5238V103.082ZM470.032 45.3191C467.427 43.7366 464.554 42.9453 461.45 42.9453H388.068V120.661H461.45C464.554 120.661 467.427 119.918 470.032 118.409V118.397C472.613 116.814 474.658 114.745 476.131 112.188C477.701 109.534 478.48 106.613 478.48 103.46V60.1465C478.48 56.9814 477.701 54.1084 476.131 51.5398C474.658 48.8982 472.613 46.8287 470.02 45.3313" fill="white"/>
<path d="M247.062 103.082C247.062 103.667 246.868 104.19 246.454 104.689C246.076 105.055 245.589 105.261 244.92 105.261H189.202C188.642 105.261 188.13 105.079 187.643 104.665C187.23 104.178 187.047 103.655 187.047 103.082V60.5238C187.047 59.9395 187.242 59.4769 187.631 59.063C188.143 58.5517 188.642 58.3448 189.19 58.3448H244.908C245.553 58.3448 246.028 58.5639 246.417 59.0265L246.441 59.0509L246.466 59.0752C246.868 59.4769 247.05 59.9395 247.05 60.536V103.095L247.062 103.082ZM253.879 45.3191C251.274 43.7366 248.45 42.9453 245.419 42.9453H188.836C185.72 42.9453 182.847 43.7366 180.242 45.3313C177.722 46.8287 175.689 48.9103 174.143 51.5398C172.658 54.1206 171.927 56.9935 171.927 60.1586V103.472C171.927 106.625 172.658 109.547 174.143 112.188V112.225C175.689 114.769 177.722 116.826 180.218 118.409H180.23L180.242 118.433C182.847 119.931 185.72 120.685 188.824 120.685H245.407C248.438 120.685 251.262 119.943 253.855 118.433V118.421C256.436 116.838 258.481 114.769 259.954 112.213C261.524 109.559 262.304 106.637 262.304 103.472V60.1465C262.304 56.9814 261.524 54.1084 259.954 51.5398C258.481 48.8982 256.436 46.8287 253.843 45.3313" fill="white"/>
</svg>
