<svg width="1218" height="99" viewBox="0 0 1218 99" fill="none" xmlns="http://www.w3.org/2000/svg">

    <path d="M0 10.5226V88.0936L22.7099 98.4218V94.9831V55.0797V35.1888V3.43869V0L0 10.5226Z" fill="#384b5a"/>
    <path d="M572.025 44.071L542.304 10.5955H526.945V88.0935H540.919V31.3613L572.025 66.2463L603.022 31.2519V88.0935H617.104V10.5955H601.649L572.025 44.071Z"
          fill="#384b5a"/>
    <path d="M652.062 10.5955H638.198V88.0935H652.062V10.5955Z" fill="#384b5a"/>
    <path d="M735.308 67.2062L688.503 10.5955H673.156V88.0935H687.13V31.3613L734.032 88.0935H749.391V10.5955H735.308V67.2062Z"
          fill="#384b5a"/>
    <path d="M770.473 88.0935H840.668V73.7798H784.555V56.55H829.659V42.1269H784.555V24.9092H840.668V10.5955H770.473V88.0935Z"
          fill="#384b5a"/>
    <path d="M921.568 46.003C921.568 46.3554 921.435 46.647 921.143 46.8658C920.864 47.0845 920.548 47.1938 920.183 47.1938H874.654C874.302 47.1938 873.986 47.0845 873.706 46.8658C873.487 46.647 873.39 46.3676 873.39 46.003V26.1972C873.39 25.8448 873.5 25.5532 873.706 25.3345C873.986 25.0429 874.302 24.9092 874.654 24.9092H920.183C920.535 24.9092 920.851 25.055 921.143 25.3345C921.423 25.5532 921.568 25.8327 921.568 26.1972V46.003ZM928.239 12.7462C925.979 11.3853 923.512 10.7049 920.827 10.7049H859.417V88.0936H873.39V61.6169L888.494 61.5804L916.732 88.0936H935.651V86.5139L909.041 61.5318L920.827 61.5075C923.512 61.5075 925.979 60.8635 928.239 59.5755C930.499 58.2146 932.298 56.3799 933.634 54.0834C934.971 51.7868 935.651 49.2716 935.651 46.5498V25.6625C935.651 22.9408 934.983 20.462 933.634 18.2384C932.298 15.9419 930.499 14.1071 928.239 12.7462Z"
          fill="#384b5a"/>
    <path d="M1016.3 47.1938H968.118V26.1972C968.118 25.8326 968.227 25.5532 968.434 25.3345C968.713 25.0428 969.029 24.9092 969.382 24.9092H1014.91C1015.26 24.9092 1015.58 25.055 1015.87 25.3345C1016.15 25.5532 1016.3 25.8326 1016.3 26.1972V47.1938ZM1022.97 12.6368C1020.71 11.2759 1018.24 10.5955 1015.55 10.5955H968.859C966.174 10.5955 963.707 11.2759 961.447 12.6368C959.26 13.9977 957.498 15.8325 956.149 18.129C954.813 20.3526 954.132 22.8314 954.132 25.5532V88.0935H968.106V61.3981H1016.28V88.0935H1030.37V25.5532C1030.37 22.8314 1029.7 20.3526 1028.35 18.129C1027.01 15.8325 1025.21 13.9977 1022.95 12.6368"
          fill="#384b5a"/>
    <path d="M1066.48 10.4861H1052.49V88.0935H1128.73V73.7798H1066.48V10.4861Z" fill="#384b5a"/>
    <path d="M1217.98 31.4706V25.5532C1217.98 22.8314 1217.31 20.3526 1215.96 18.129C1214.62 15.8325 1212.82 13.9977 1210.56 12.6368C1208.38 11.2759 1205.93 10.5955 1203.26 10.5955H1156.47C1153.78 10.5955 1151.32 11.2759 1149.06 12.6368C1146.87 13.9977 1145.11 15.8325 1143.76 18.129C1142.42 20.3526 1141.74 22.8314 1141.74 25.5532V41.4829C1141.74 44.2776 1142.41 46.8293 1143.76 49.1258C1145.1 51.3494 1146.87 53.1477 1149.06 54.5086C1151.32 55.8695 1153.78 56.55 1156.47 56.55H1202.63C1202.98 56.55 1203.26 56.6593 1203.48 56.878C1203.76 57.0967 1203.91 57.3762 1203.91 57.7407V72.4919C1203.91 72.8442 1203.76 73.1723 1203.48 73.4639C1203.27 73.6826 1202.98 73.792 1202.63 73.792H1156.99C1156.64 73.792 1156.32 73.6826 1156.04 73.4639C1155.84 73.1723 1155.73 72.8564 1155.73 72.4919V67.2184H1141.75V73.1358C1141.75 75.8576 1142.42 78.3729 1143.77 80.6694C1145.11 82.893 1146.88 84.6913 1149.07 86.0522C1151.33 87.4131 1153.8 88.0935 1156.48 88.0935H1203.27C1205.96 88.0935 1208.39 87.4131 1210.58 86.0522C1212.84 84.6913 1214.63 82.893 1215.97 80.6694C1217.31 78.3729 1217.99 75.8576 1217.99 73.1358V57.2061C1217.99 54.4114 1217.32 51.8962 1215.97 49.6726C1214.63 47.3761 1212.84 45.5413 1210.58 44.1804C1208.39 42.8195 1205.95 42.1391 1203.27 42.1391H1157C1156.65 42.1391 1156.33 42.0297 1156.06 41.811C1155.85 41.5923 1155.74 41.3128 1155.74 40.9483V26.1972C1155.74 25.8326 1155.85 25.5532 1156.06 25.3345C1156.33 25.0428 1156.65 24.9092 1157 24.9092H1202.64C1202.99 24.9092 1203.27 25.055 1203.49 25.3345C1203.77 25.5532 1203.92 25.8326 1203.92 26.1972V31.4706H1218H1217.98Z"
          fill="#384b5a"/>
    <path d="M142.942 67.3034L82.9173 10.6441V10.5226H82.7836H74.9342H67.8016V88.0935H82.9173V31.6164L142.748 88.0935H142.942H145.749H158.058V10.5226H142.942V67.3034Z"
          fill="#384b5a"/>
    <path d="M358.924 45.0553C358.924 45.675 358.705 46.2218 358.328 46.5985C357.951 46.9873 357.465 47.1939 356.785 47.1939H301.171C300.599 47.1939 300.089 46.9995 299.603 46.5742C299.469 46.4284 299.312 46.1611 299.202 45.8208C299.093 45.4685 299.032 45.0918 299.032 44.7759V28.19C299.032 27.6067 299.214 27.145 299.615 26.7319C300.113 26.2215 300.624 26.015 301.171 26.015H356.785C357.429 26.015 357.903 26.2458 358.292 26.6954L358.316 26.7197V26.744C358.729 27.145 358.924 27.6189 358.924 28.2021V45.0675V45.0553ZM365.728 13.0257C363.128 11.434 360.248 10.6563 357.137 10.6563H283.892V88.0936H299.02V62.8199L326.116 62.7591H326.748L353.589 88.0936H374.161V86.5262L348.936 62.7105L350.467 62.6862H357.149C360.248 62.6862 363.116 61.9329 365.716 60.4383V60.414C368.292 58.8465 370.333 56.7688 371.803 54.2171C373.347 51.5925 374.136 49.1745 374.136 45.9788V27.8012C374.136 24.7148 373.359 21.8959 371.803 19.332C370.333 16.6953 368.292 14.581 365.716 13.0014"
          fill="#384b5a"/>
    <path d="M466.616 70.5477C466.616 71.131 466.422 71.6534 466.009 72.1516C465.632 72.5162 465.146 72.7227 464.478 72.7227H408.742C408.183 72.7227 407.721 72.5405 407.333 72.1516C406.907 71.6534 406.725 71.131 406.725 70.5477V28.0684C406.725 27.4852 406.919 27.0234 407.308 26.6103L407.333 26.586L407.357 26.5617C407.77 26.0878 408.207 25.8812 408.742 25.8812H464.478C465.122 25.8812 465.596 26.1 465.985 26.5617L466.009 26.586L466.033 26.6103C466.434 27.0113 466.616 27.473 466.616 28.0684V70.5477ZM473.421 12.892C470.821 11.3124 467.953 10.5226 464.855 10.5226H391.609V88.0935H464.855C467.953 88.0935 470.821 87.3523 473.421 85.8456V85.8335C475.997 84.2539 478.038 82.1882 479.509 79.6365C481.076 76.9877 481.854 74.0715 481.854 70.9244V27.6917C481.854 24.5325 481.076 21.6649 479.509 19.1011C478.038 16.4643 475.997 14.3987 473.409 12.9041"
          fill="#384b5a"/>
    <path d="M250.866 70.5477C250.866 71.131 250.672 71.6534 250.259 72.1516C249.882 72.5162 249.396 72.7227 248.728 72.7227H193.113C192.554 72.7227 192.044 72.5405 191.558 72.1273C191.145 71.6413 190.963 71.1188 190.963 70.5477V28.0684C190.963 27.4852 191.157 27.0234 191.546 26.6103C192.056 26.1 192.554 25.8934 193.101 25.8934H248.716C249.36 25.8934 249.833 26.1121 250.222 26.5738L250.247 26.5981L250.271 26.6224C250.672 27.0234 250.854 27.4852 250.854 28.0805V70.5599L250.866 70.5477ZM257.671 12.892C255.07 11.3124 252.252 10.5226 249.226 10.5226H192.749C189.638 10.5226 186.771 11.3124 184.17 12.9041C181.655 14.3987 179.626 16.4765 178.083 19.1011C176.6 21.6771 175.871 24.5446 175.871 27.7039V70.9365C175.871 74.0836 176.6 76.9998 178.083 79.6365V79.673C179.626 82.2125 181.655 84.266 184.146 85.8456H184.158L184.17 85.8699C186.771 87.3645 189.638 88.1178 192.737 88.1178H249.214C252.239 88.1178 255.058 87.3766 257.646 85.8699V85.8578C260.222 84.2782 262.264 82.2125 263.734 79.6608C265.302 77.012 266.079 74.0958 266.079 70.9365V27.6917C266.079 24.5325 265.302 21.6649 263.734 19.1011C262.264 16.4643 260.222 14.3987 257.634 12.9041"
          fill="#384b5a"/>

</svg>
