<svg width="112" height="40" viewBox="0 0 112 40" fill="none" xmlns="http://www.w3.org/2000/svg">
<g clip-path="url(#clip0_1213_2989)">
<path d="M0 3.33011V36.7108L5.27932 39.0566V0.941406L0 3.33011Z" fill="#27B0C7"/>
<path d="M22.0387 30.7224L17.8988 26.168H15.7598V36.7123H17.7058V28.9944L22.0387 33.7405L26.355 28.9796V36.7123H28.316V26.168H26.1637L22.0387 30.7224Z" fill="white"/>
<path d="M33.1845 26.168H31.2534V36.7123H33.1845V26.168Z" fill="white"/>
<path d="M44.7776 33.871L38.2608 26.168H36.1218V36.7123H38.0696V28.9944L44.6013 36.7123H46.7387V26.168H44.7776V33.871Z" fill="white"/>
<path d="M49.676 36.7123H59.4529V34.7647H51.6371V32.4222H57.9193V30.4597H51.6371V28.1156H59.4529V26.168H49.676V36.7123Z" fill="white"/>
<path d="M71.6483 26.4611C71.334 26.2761 70.9897 26.1836 70.6154 26.1836H62.0627V36.7131H64.0088V33.1102L66.1129 33.1052L70.0449 36.7131H72.6796V36.4983L68.9738 33.0986L70.6138 33.0953C70.988 33.0953 71.3323 33.0078 71.6467 32.831C71.961 32.646 72.2122 32.3965 72.3985 32.0843C72.5848 31.7721 72.6779 31.4302 72.6779 31.0585V28.2171C72.6779 27.8454 72.5848 27.5084 72.3985 27.2061C72.2122 26.8939 71.961 26.6445 71.6467 26.4595L71.6483 26.4611ZM70.7186 30.9858C70.7186 31.0337 70.6986 31.0733 70.6603 31.1031C70.6204 31.1328 70.5772 31.1477 70.5273 31.1477H64.1868C64.1385 31.1477 64.0936 31.1328 64.0537 31.1031C64.0238 31.0733 64.0088 31.0353 64.0088 30.9858V28.2915C64.0088 28.2419 64.0238 28.2039 64.0537 28.1742C64.0936 28.1345 64.1369 28.1164 64.1868 28.1164H70.5273C70.5772 28.1164 70.6204 28.1362 70.6603 28.1742C70.7003 28.2039 70.7186 28.2419 70.7186 28.2915V30.9858Z" fill="white"/>
<path d="M84.8417 26.4455C84.5273 26.2605 84.183 26.168 83.8088 26.168H77.3053C76.931 26.168 76.5884 26.2605 76.2724 26.4455C75.968 26.6305 75.7218 26.88 75.5355 27.1922C75.3492 27.4945 75.2561 27.8315 75.2561 28.2032V36.7123H77.2022V33.0797H83.9119V36.7123H85.873V28.2032C85.873 27.8315 85.7798 27.4945 85.5935 27.1922C85.4072 26.88 85.1561 26.6305 84.8417 26.4455ZM83.9119 31.1469H77.2022V28.2907C77.2022 28.2412 77.2171 28.2032 77.2471 28.1734C77.287 28.1338 77.3302 28.1156 77.3801 28.1156H83.7206C83.7705 28.1156 83.8138 28.1354 83.8537 28.1734C83.8936 28.2032 83.9119 28.2412 83.9119 28.2907V31.1469Z" fill="white"/>
<path d="M90.9011 26.1523H88.9551V36.7115H99.5719V34.7639H90.9011V26.1523Z" fill="white"/>
<path d="M112 29.0093V28.2032C112 27.8315 111.907 27.4945 111.721 27.1922C111.534 26.88 111.283 26.6305 110.969 26.4455C110.664 26.2605 110.325 26.168 109.951 26.168H103.432C103.058 26.168 102.716 26.2605 102.4 26.4455C102.095 26.6305 101.849 26.88 101.663 27.1922C101.476 27.4945 101.383 27.8315 101.383 28.2032V30.3705C101.383 30.7521 101.476 31.0974 101.663 31.4096C101.849 31.7119 102.095 31.9564 102.4 32.1414C102.714 32.3264 103.058 32.4189 103.432 32.4189H109.861C109.911 32.4189 109.949 32.4338 109.979 32.4635C110.019 32.4932 110.037 32.5312 110.037 32.5808V34.5879C110.037 34.6358 110.017 34.6804 109.979 34.7201C109.949 34.7498 109.911 34.7647 109.861 34.7647H103.506C103.456 34.7647 103.412 34.7498 103.373 34.7201C103.343 34.6804 103.328 34.6375 103.328 34.5879V33.871H101.382V34.6771C101.382 35.0488 101.475 35.3891 101.661 35.703C101.847 36.0053 102.093 36.2498 102.398 36.4348C102.712 36.6198 103.057 36.7123 103.431 36.7123H109.949C110.323 36.7123 110.663 36.6198 110.967 36.4348C111.282 36.2498 111.533 36.0053 111.719 35.703C111.905 35.3907 111.998 35.0488 111.998 34.6771V32.5098C111.998 32.1282 111.905 31.7879 111.719 31.4839C111.533 31.1717 111.282 30.9222 110.967 30.7372C110.663 30.5522 110.323 30.4597 109.949 30.4597H103.506C103.456 30.4597 103.412 30.4448 103.373 30.4151C103.343 30.3854 103.328 30.3474 103.328 30.2978V28.2907C103.328 28.2412 103.343 28.2032 103.373 28.1734C103.412 28.1338 103.456 28.1156 103.506 28.1156H109.861C109.911 28.1156 109.949 28.1354 109.979 28.1734C110.019 28.2032 110.037 28.2412 110.037 28.2907V29.0077H111.998L112 29.0093Z" fill="white"/>
<path d="M33.2244 16.2254L19.2743 3.36011V3.33203H19.2427H17.4164H15.7598V20.9467H19.2743V8.12265L33.1795 20.9467H33.2244H33.8764H36.739V3.33203H33.2244V16.2254Z" fill="white"/>
<path d="M85.0081 3.89791C84.4026 3.53778 83.734 3.35938 83.0121 3.35938H65.9866V20.9443H69.5011V15.2038L75.7984 15.1906H75.9448L82.1855 20.9443H86.9658V20.5891L81.1026 15.1823L81.4603 15.1773H83.0121C83.7323 15.1757 84.3976 15.0055 85.0031 14.6669H85.0047L85.0064 14.6619C85.6052 14.3051 86.0792 13.836 86.4219 13.2561C86.7812 12.6614 86.9641 12.1113 86.9641 11.3861V7.25795C86.9641 6.55753 86.7845 5.91658 86.4219 5.33344C86.0809 4.73379 85.6069 4.25638 85.0064 3.89626L85.0081 3.89791ZM83.4263 11.1714C83.4263 11.3102 83.3764 11.4357 83.2882 11.5216C83.2017 11.6092 83.087 11.6571 82.9289 11.6571H70.0001C69.8687 11.6571 69.749 11.6141 69.6342 11.5183C69.6026 11.4836 69.5677 11.4241 69.541 11.3465C69.5144 11.2672 69.5028 11.1813 69.5028 11.1103V7.34385C69.5028 7.21004 69.546 7.10597 69.6392 7.01346C69.7556 6.89783 69.8754 6.84992 70.0001 6.84992H82.9289C83.0786 6.84992 83.1884 6.90113 83.2799 7.0052L83.2849 7.01016L83.2899 7.01512C83.383 7.10762 83.4279 7.21335 83.4279 7.3455V11.1747L83.4263 11.1714Z" fill="white"/>
<path d="M110.039 3.86831C109.434 3.50819 108.768 3.32812 108.046 3.32812H91.0225V20.9444H108.046C108.767 20.9444 109.432 20.7743 110.036 20.434H110.037L110.039 20.4306C110.639 20.0722 111.112 19.603 111.454 19.0232C111.817 18.4219 111.998 17.7611 111.998 17.0425V7.22835C111.998 6.51141 111.817 5.8589 111.454 5.27576C111.112 4.67776 110.638 4.20696 110.036 3.86831H110.039ZM108.459 16.9599C108.459 17.0904 108.416 17.2094 108.317 17.3233C108.231 17.4076 108.118 17.4539 107.962 17.4539H95.0061C94.8747 17.4539 94.7699 17.4109 94.6784 17.3233C94.5803 17.211 94.537 17.0921 94.537 16.9599V7.31425C94.537 7.1821 94.5819 7.07637 94.6734 6.98387L94.6784 6.97891L94.6834 6.97395C94.7782 6.86658 94.883 6.82032 95.0061 6.82032H107.962C108.111 6.82032 108.223 6.87153 108.312 6.97395L108.317 6.97891L108.322 6.98387C108.414 7.07472 108.459 7.18045 108.459 7.31425V16.9616V16.9599Z" fill="white"/>
<path d="M59.8903 3.86831C59.2866 3.50984 58.6312 3.32812 57.926 3.32812H44.7992C44.0773 3.32812 43.4104 3.50819 42.8049 3.86831C42.2211 4.20861 41.7487 4.67776 41.3894 5.27411C41.0451 5.8589 40.8755 6.51141 40.8755 7.2267V17.0425C40.8755 17.7578 41.0468 18.4186 41.3894 19.0182V19.0215L41.3944 19.0248C41.7537 19.6014 42.2244 20.0689 42.8049 20.4257H42.8082L42.8116 20.4306C43.417 20.7709 44.0807 20.9411 44.8009 20.9411H57.9276C58.6296 20.9411 59.2849 20.7709 59.8887 20.4306H59.8903L59.892 20.4273C60.4925 20.0689 60.9648 19.5997 61.3075 19.0199C61.6701 18.4186 61.8514 17.7578 61.8514 17.0392V7.22835C61.8514 6.51141 61.6701 5.8589 61.3075 5.27576C60.9648 4.67776 60.4925 4.20696 59.8887 3.86831H59.8903ZM58.3102 16.9599C58.3102 17.0904 58.267 17.2094 58.1688 17.3234C58.0807 17.4076 57.9692 17.4539 57.8129 17.4539H44.8857C44.756 17.4539 44.6379 17.4126 44.5248 17.3184C44.43 17.2077 44.3884 17.0904 44.3884 16.9599V7.31425C44.3884 7.1821 44.4333 7.07637 44.5248 6.98387C44.6429 6.86658 44.761 6.82032 44.8857 6.82032H57.8129C57.9626 6.82032 58.074 6.87153 58.1638 6.97395L58.1688 6.97891L58.1738 6.98387C58.2653 7.07472 58.3102 7.18045 58.3102 7.31425V16.9616V16.9599Z" fill="white"/>
</g>
<defs>
<clipPath id="clip0_1213_2989">
<rect width="112" height="38.1152" fill="white" transform="translate(0 0.941406)"/>
</clipPath>
</defs>
</svg>
