<svg width="58" height="175" viewBox="0 0 58 175" fill="none" xmlns="http://www.w3.org/2000/svg" preserveAspectRatio="none">
<path d="M57 156.079V21.427C57 19.6824 55.8692 18.139 54.2057 17.6131L6.20572 2.43867C3.62739 1.62358 1 3.54852 1 6.25262V169.519C1 172.168 3.52792 174.085 6.07854 173.371L54.0785 159.931C55.8059 159.447 57 157.873 57 156.079Z" stroke="white"/>
<path d="M57 156.079V21.427C57 19.6824 55.8692 18.139 54.2057 17.6131L6.20572 2.43867C3.62739 1.62358 1 3.54852 1 6.25262V169.519C1 172.168 3.52792 174.085 6.07854 173.371L54.0785 159.931C55.8059 159.447 57 157.873 57 156.079Z" stroke="url(#paint0_linear_1112_6571)"/>
<defs>
<linearGradient id="paint0_linear_1112_6571" x1="29" y1="0.792969" x2="29" y2="174.793" gradientUnits="userSpaceOnUse">
<stop stop-color="white"/>
<stop offset="1" stop-color="#65C9DA"/>
</linearGradient>
</defs>
</svg>
