<svg width="58" height="173" viewBox="0 0 58 173" fill="none" xmlns="http://www.w3.org/2000/svg" preserveAspectRatio="none">
<path d="M57 167.361V6.08397C57 3.43006 54.4628 1.51194 51.9094 2.23551L3.90944 15.8376C2.18809 16.3253 1 17.8969 1 19.686V152.443C1 154.195 2.13993 155.742 3.81282 156.262L51.8128 171.181C54.3873 171.981 57 170.057 57 167.361Z" stroke="white"/>
<path d="M57 167.361V6.08397C57 3.43006 54.4628 1.51194 51.9094 2.23551L3.90944 15.8376C2.18809 16.3253 1 17.8969 1 19.686V152.443C1 154.195 2.13993 155.742 3.81282 156.262L51.8128 171.181C54.3873 171.981 57 170.057 57 167.361Z" stroke="url(#paint0_linear_1112_6570)"/>
<defs>
<linearGradient id="paint0_linear_1112_6570" x1="29" y1="0.792969" x2="29" y2="172.793" gradientUnits="userSpaceOnUse">
<stop stop-color="white"/>
<stop offset="1" stop-color="#65C9DA"/>
</linearGradient>
</defs>
</svg>
