<svg aria-hidden="true" style="position: absolute; width: 0; height: 0; overflow: hidden;" version="1.1" xmlns="http://www.w3.org/2000/svg">
    <symbol id="left" viewBox="0 0 39 40">
        <path fill-rule="evenodd" clip-rule="evenodd" d="M19.5 6C11.9613 6 5.85 12.268 5.85 20C5.85001 27.732 11.9613 34 19.5 34C27.0387 34 33.15 27.732 33.15 20C33.15 12.268 27.0387 6 19.5 6ZM19.5 4C10.8844 4 3.9 11.1634 3.9 20C3.9 28.8366 10.8844 36 19.5 36C28.1156 36 35.1 28.8366 35.1 20C35.1 11.1634 28.1156 4 19.5 4ZM22.852 27.5565C22.4713 27.947 21.8539 27.947 21.4732 27.5565L14.7952 20.7073C14.6048 20.512 14.5096 20.256 14.5096 20C14.5096 19.744 14.6048 19.488 14.7952 19.2927L21.4732 12.4435C21.8539 12.053 22.4713 12.053 22.852 12.4435C23.2328 12.8341 23.2328 13.4672 22.852 13.8577L16.8633 20L22.852 26.1423C23.2328 26.5328 23.2328 27.1659 22.852 27.5565Z" fill="currentColor"/>
    </symbol>
    <symbol id="right" viewBox="0 0 39 41">
        <path fill-rule="evenodd" clip-rule="evenodd" d="M19.5 34.793C27.0387 34.793 33.15 28.525 33.15 20.793C33.15 13.061 27.0387 6.79297 19.5 6.79297C11.9613 6.79297 5.85002 13.061 5.85002 20.793C5.85002 28.525 11.9613 34.793 19.5 34.793ZM19.5 36.793C28.1157 36.793 35.1 29.6295 35.1 20.793C35.1 11.9564 28.1157 4.79297 19.5 4.79297C10.8844 4.79297 3.90002 11.9564 3.90002 20.793C3.90002 29.6295 10.8844 36.793 19.5 36.793ZM16.148 13.2365C16.5287 12.846 17.1461 12.846 17.5268 13.2365L24.2048 20.0857C24.3952 20.281 24.4904 20.537 24.4904 20.793C24.4904 21.0489 24.3952 21.3049 24.2048 21.5002L17.5268 28.3494C17.1461 28.74 16.5287 28.74 16.148 28.3494C15.7672 27.9589 15.7672 27.3258 16.148 26.9352L22.1367 20.793L16.148 14.6507C15.7672 14.2602 15.7672 13.627 16.148 13.2365Z" fill="currentColor"/>
    </symbol>
</svg>