<svg aria-hidden="true" style="position: absolute; width: 0; height: 0; overflow: hidden;" version="1.1" xmlns="http://www.w3.org/2000/svg">

    <symbol id="left" viewBox="0 0 32 33">
        <path fill-rule="evenodd" clip-rule="evenodd" d="M16 2.22266C8.26801 2.22266 2 8.49067 2 16.2227C2 23.9546 8.26801 30.2227 16 30.2227C23.732 30.2227 30 23.9546 30 16.2227C30 8.49067 23.732 2.22266 16 2.22266ZM16 0.222658C7.16344 0.222658 -2.17128e-06 7.3861 -1.39876e-06 16.2227C-6.26248e-07 25.0592 7.16344 32.2227 16 32.2227C24.8366 32.2227 32 25.0592 32 16.2227C32 7.3861 24.8366 0.222657 16 0.222658ZM19.438 23.7791C19.0475 24.1697 18.4143 24.1697 18.0238 23.7791L11.1746 16.9299C10.9793 16.7346 10.8816 16.4786 10.8817 16.2227C10.8816 15.9667 10.9793 15.7107 11.1746 15.5154L18.0238 8.66618C18.4143 8.27566 19.0475 8.27566 19.438 8.66618C19.8285 9.05671 19.8285 9.68987 19.438 10.0804L13.2957 16.2227L19.438 22.3649C19.8285 22.7554 19.8285 23.3886 19.438 23.7791Z" fill="currentColor"/>
    </symbol>

    <symbol id="right" viewBox="0 0 32 33">
        <path fill-rule="evenodd" clip-rule="evenodd" d="M16 30.2227C23.732 30.2227 30 23.9546 30 16.2227C30 8.49067 23.732 2.22266 16 2.22266C8.26801 2.22266 2 8.49067 2 16.2227C2 23.9546 8.26801 30.2227 16 30.2227ZM16 32.2227C24.8366 32.2227 32 25.0592 32 16.2227C32 7.3861 24.8366 0.222656 16 0.222656C7.16344 0.222656 0 7.3861 0 16.2227C0 25.0592 7.16344 32.2227 16 32.2227ZM12.562 8.66618C12.9525 8.27566 13.5857 8.27566 13.9762 8.66618L20.8254 15.5154C21.0207 15.7107 21.1184 15.9667 21.1183 16.2227C21.1184 16.4786 21.0207 16.7346 20.8254 16.9299L13.9762 23.7791C13.5857 24.1697 12.9525 24.1697 12.562 23.7791C12.1715 23.3886 12.1715 22.7554 12.562 22.3649L18.7043 16.2227L12.562 10.0804C12.1715 9.68987 12.1715 9.05671 12.562 8.66618Z" fill="currentColor"/>
    </symbol>
    <symbol id="bottom" viewBox="0 0 24 24">
        <path fill-rule="evenodd" clip-rule="evenodd" d="M1.5 12C1.5 17.799 6.20101 22.5 12 22.5C17.799 22.5 22.5 17.799 22.5 12C22.5 6.20101 17.799 1.5 12 1.5C6.20101 1.5 1.5 6.20101 1.5 12ZM0 12C0 18.6274 5.37258 24 12 24C18.6274 24 24 18.6274 24 12C24 5.37258 18.6274 0 12 0C5.37258 0 0 5.37258 0 12ZM17.6674 9.42151C17.9602 9.7144 17.9602 10.1893 17.6674 10.4822L12.5305 15.6191C12.384 15.7655 12.192 15.8388 12 15.8387C11.808 15.8388 11.616 15.7655 11.4695 15.6191L6.33265 10.4822C6.03975 10.1893 6.03975 9.7144 6.33265 9.42151C6.62554 9.12862 7.10041 9.12862 7.39331 9.42151L12 14.0282L16.6067 9.42151C16.8996 9.12862 17.3745 9.12862 17.6674 9.42151Z" fill="currentColor"/>
    </symbol>

</svg>