<svg width="64" height="64" viewBox="0 0 64 64" fill="none" xmlns="http://www.w3.org/2000/svg">
<path d="M13.332 13.3346C13.332 12.6274 13.613 11.9491 14.1131 11.449C14.6132 10.9489 15.2915 10.668 15.9987 10.668H21.332C22.0393 10.668 22.7176 10.9489 23.2176 11.449C23.7177 11.9491 23.9987 12.6274 23.9987 13.3346V50.668C23.9987 51.3752 23.7177 52.0535 23.2176 52.5536C22.7176 53.0537 22.0393 53.3346 21.332 53.3346H15.9987C15.2915 53.3346 14.6132 53.0537 14.1131 52.5536C13.613 52.0535 13.332 51.3752 13.332 50.668V13.3346Z" stroke="#324655" stroke-width="3" stroke-linecap="round" stroke-linejoin="round"/>
<path d="M24 13.3346C24 12.6274 24.281 11.9491 24.781 11.449C25.2811 10.9489 25.9594 10.668 26.6667 10.668H32C32.7072 10.668 33.3855 10.9489 33.8856 11.449C34.3857 11.9491 34.6667 12.6274 34.6667 13.3346V50.668C34.6667 51.3752 34.3857 52.0535 33.8856 52.5536C33.3855 53.0537 32.7072 53.3346 32 53.3346H26.6667C25.9594 53.3346 25.2811 53.0537 24.781 52.5536C24.281 52.0535 24 51.3752 24 50.668V13.3346Z" stroke="#324655" stroke-width="3" stroke-linecap="round" stroke-linejoin="round"/>
<path d="M13.332 21.332H23.9987" stroke="#324655" stroke-width="3" stroke-linecap="round" stroke-linejoin="round"/>
<path d="M24 42.668H34.6667" stroke="#324655" stroke-width="3" stroke-linecap="round" stroke-linejoin="round"/>
<path d="M36.8082 12.1588L42.6322 10.7455C44.1309 10.3855 45.6535 11.2521 46.0509 12.6975L55.9042 48.4788C56.078 49.1339 56.0011 49.8302 55.6883 50.4315C55.3756 51.0328 54.8497 51.4957 54.2135 51.7295L53.8589 51.8388L48.0349 53.2521C46.5362 53.6121 45.0135 52.7455 44.6162 51.3001L34.7629 15.5188C34.589 14.8637 34.666 14.1674 34.9787 13.5661C35.2915 12.9648 35.8174 12.5019 36.4535 12.2681L36.8082 12.1588Z" stroke="#324655" stroke-width="3" stroke-linecap="round" stroke-linejoin="round"/>
<path d="M37.332 23.9987L47.9987 21.332" stroke="#324655" stroke-width="3" stroke-linecap="round" stroke-linejoin="round"/>
<path d="M42.668 42.668L53.1293 40.0547" stroke="#324655" stroke-width="3" stroke-linecap="round" stroke-linejoin="round"/>
</svg>
