<svg width="64" height="64" viewBox="0 0 64 64" fill="none" xmlns="http://www.w3.org/2000/svg">
<path d="M32.0002 8C37.1149 8 41.3869 11.6 42.4269 16.4027C45.1579 15.6636 48.0706 16.0397 50.5244 17.4482C52.9781 18.8567 54.7718 21.1823 55.5109 23.9133C56.2499 26.6444 55.8738 29.5571 54.4653 32.0108C53.0568 34.4646 50.7312 36.2583 48.0002 36.9973V56H16.0002V36.9973C14.6479 36.631 13.3811 36.002 12.2719 35.1461C11.1627 34.2902 10.233 33.2242 9.53586 32.009C8.83867 30.7937 8.38767 29.4531 8.2086 28.0636C8.02953 26.6741 8.12589 25.2629 8.49219 23.9107C8.85849 22.5584 9.48756 21.2915 10.3435 20.1824C11.1994 19.0732 12.2654 18.1435 13.4806 17.4463C14.6958 16.7491 16.0364 16.2981 17.4259 16.1191C18.8154 15.94 20.2266 16.0364 21.5789 16.4027C22.0958 14.0228 23.4114 11.8915 25.3073 10.363C27.2031 8.83437 29.5649 8.00052 32.0002 8Z" stroke="#324655" stroke-width="3" stroke-linecap="round" stroke-linejoin="round"/>
<path d="M16.4297 45.356L48.0004 45.332" stroke="#324655" stroke-width="3" stroke-linecap="round" stroke-linejoin="round"/>
</svg>
