<svg width="33" height="32" viewBox="0 0 33 32" fill="none" xmlns="http://www.w3.org/2000/svg">
<path fill-rule="evenodd" clip-rule="evenodd" d="M30.6006 16.0016C30.6006 8.46287 24.3326 2.35156 16.6006 2.35156C8.8686 2.35156 2.60058 8.46287 2.60059 16.0016C2.60059 23.5402 8.8686 29.6516 16.6006 29.6516C24.3326 29.6516 30.6006 23.5402 30.6006 16.0016ZM32.6006 16.0016C32.6006 7.38592 25.4371 0.401561 16.6006 0.401561C7.76403 0.401561 0.600585 7.38592 0.600585 16.0016C0.600586 24.6172 7.76403 31.6016 16.6006 31.6016C25.4371 31.6016 32.6006 24.6172 32.6006 16.0016ZM9.04411 19.3536C8.65359 18.9728 8.65359 18.3555 9.04411 17.9747L15.8933 11.2968C16.0886 11.1064 16.3446 11.0112 16.6006 11.0112C16.8566 11.0112 17.1126 11.1063 17.3079 11.2968L24.1571 17.9747C24.5476 18.3555 24.5476 18.9728 24.1571 19.3536C23.7665 19.7344 23.1334 19.7344 22.7428 19.3536L16.6006 13.3649L10.4583 19.3536C10.0678 19.7344 9.43464 19.7344 9.04411 19.3536Z" fill="#27B0C7"/>
</svg>
