<svg width="64" height="64" viewBox="0 0 64 64" fill="none" xmlns="http://www.w3.org/2000/svg">
<g clip-path="url(#clip0_1111_4513)">
<path d="M26.668 34.6654C26.668 36.0799 27.2299 37.4364 28.2301 38.4366C29.2303 39.4368 30.5868 39.9987 32.0013 39.9987C33.4158 39.9987 34.7723 39.4368 35.7725 38.4366C36.7727 37.4364 37.3346 36.0799 37.3346 34.6654C37.3346 33.2509 36.7727 31.8943 35.7725 30.8941C34.7723 29.8939 33.4158 29.332 32.0013 29.332C30.5868 29.332 29.2303 29.8939 28.2301 30.8941C27.2299 31.8943 26.668 33.2509 26.668 34.6654Z" stroke="white" stroke-width="3" stroke-linecap="round" stroke-linejoin="round"/>
<path d="M21.332 56V53.3333C21.332 51.9188 21.8939 50.5623 22.8941 49.5621C23.8943 48.5619 25.2509 48 26.6654 48H37.332C38.7465 48 40.1031 48.5619 41.1033 49.5621C42.1035 50.5623 42.6654 51.9188 42.6654 53.3333V56" stroke="white" stroke-width="3" stroke-linecap="round" stroke-linejoin="round"/>
<path d="M40 13.3333C40 14.7478 40.5619 16.1044 41.5621 17.1046C42.5623 18.1048 43.9188 18.6667 45.3333 18.6667C46.7478 18.6667 48.1044 18.1048 49.1046 17.1046C50.1048 16.1044 50.6667 14.7478 50.6667 13.3333C50.6667 11.9188 50.1048 10.5623 49.1046 9.5621C48.1044 8.5619 46.7478 8 45.3333 8C43.9188 8 42.5623 8.5619 41.5621 9.5621C40.5619 10.5623 40 11.9188 40 13.3333Z" stroke="white" stroke-width="3" stroke-linecap="round" stroke-linejoin="round"/>
<path d="M45.332 26.668H50.6654C52.0799 26.668 53.4364 27.2299 54.4366 28.2301C55.4368 29.2303 55.9987 30.5868 55.9987 32.0013V34.668" stroke="white" stroke-width="3" stroke-linecap="round" stroke-linejoin="round"/>
<path d="M13.332 13.3333C13.332 14.7478 13.8939 16.1044 14.8941 17.1046C15.8943 18.1048 17.2509 18.6667 18.6654 18.6667C20.0799 18.6667 21.4364 18.1048 22.4366 17.1046C23.4368 16.1044 23.9987 14.7478 23.9987 13.3333C23.9987 11.9188 23.4368 10.5623 22.4366 9.5621C21.4364 8.5619 20.0799 8 18.6654 8C17.2509 8 15.8943 8.5619 14.8941 9.5621C13.8939 10.5623 13.332 11.9188 13.332 13.3333Z" stroke="white" stroke-width="3" stroke-linecap="round" stroke-linejoin="round"/>
<path d="M8 34.668V32.0013C8 30.5868 8.5619 29.2303 9.5621 28.2301C10.5623 27.2299 11.9188 26.668 13.3333 26.668H18.6667" stroke="white" stroke-width="3" stroke-linecap="round" stroke-linejoin="round"/>
</g>
<defs>
<clipPath id="clip0_1111_4513">
<rect width="64" height="64" fill="white"/>
</clipPath>
</defs>
</svg>
