<svg width="64" height="64" viewBox="0 0 64 64" fill="none" xmlns="http://www.w3.org/2000/svg">
<path d="M33.9144 55.2344C29.5753 56.4612 24.9519 56.2139 20.7685 54.5312C16.5851 52.8485 13.0782 49.8255 10.7971 45.9358C8.51612 42.0462 7.58992 37.5097 8.16368 33.0373C8.73744 28.5648 10.7787 24.409 13.9677 21.2211L15.8877 19.3011C19.0154 16.1734 23.0757 14.1481 27.4557 13.5309C31.8356 12.9137 36.2975 13.7381 40.1677 15.8798L46.533 9.62644C47.5468 8.62183 48.9087 8.04663 50.3357 8.02046C51.7626 7.9943 53.1447 8.51917 54.1946 9.48594C55.2445 10.4527 55.8813 11.787 55.9727 13.2112C56.064 14.6355 55.6028 16.0402 54.685 17.1331L54.3757 17.4691L48.1197 23.8344C50.1874 27.5716 51.029 31.8638 50.5256 36.1051C50.0222 40.3464 48.1994 44.3224 45.3144 47.4718" stroke="#324655" stroke-width="3" stroke-linecap="round" stroke-linejoin="round"/>
<path d="M29.332 48C29.332 49.0506 29.539 50.0909 29.941 51.0615C30.343 52.0321 30.9323 52.914 31.6752 53.6569C32.418 54.3997 33.3 54.989 34.2706 55.391C35.2412 55.7931 36.2815 56 37.332 56C38.3826 56 39.4229 55.7931 40.3935 55.391C41.3641 54.989 42.246 54.3997 42.9889 53.6569C43.7318 52.914 44.321 52.0321 44.7231 51.0615C45.1251 50.0909 45.332 49.0506 45.332 48C45.332 46.9494 45.1251 45.9091 44.7231 44.9385C44.321 43.9679 43.7318 43.086 42.9889 42.3431C42.246 41.6003 41.3641 41.011 40.3935 40.609C39.4229 40.2069 38.3826 40 37.332 40C36.2815 40 35.2412 40.2069 34.2706 40.609C33.3 41.011 32.418 41.6003 31.6752 42.3431C30.9323 43.086 30.343 43.9679 29.941 44.9385C29.539 45.9091 29.332 46.9494 29.332 48Z" stroke="#324655" stroke-width="3" stroke-linecap="round" stroke-linejoin="round"/>
<path d="M24.8008 14.1328L49.8674 39.1995" stroke="#324655" stroke-width="3" stroke-linecap="round" stroke-linejoin="round"/>
</svg>
