<svg width="64" height="64" viewBox="0 0 64 64" fill="none" xmlns="http://www.w3.org/2000/svg">
<g clip-path="url(#clip0_1111_4499)">
<path d="M17.1628 21.332C16.386 23.6776 15.9934 26.1332 16.0001 28.604C16.0001 39.316 23.1628 47.9987 32.0001 47.9987C40.8374 47.9987 48.0001 39.316 48.0001 28.604C48.0068 26.1332 47.6142 23.6776 46.8374 21.332" stroke="white" stroke-width="3" stroke-linecap="round" stroke-linejoin="round"/>
<path d="M38.6654 56C38.6654 56 36.8467 48 31.9987 48C27.1507 48 25.332 56 25.332 56" stroke="white" stroke-width="3" stroke-linecap="round" stroke-linejoin="round"/>
<path d="M49.3864 13.9467C50.1651 18.3893 46.6664 21.3333 46.6664 21.3333C46.6664 21.3333 42.3917 19.832 41.6131 15.3867C40.8344 10.944 44.3331 8 44.3331 8C44.3331 8 48.6077 9.50133 49.3864 13.9467Z" stroke="white" stroke-width="3" stroke-linecap="round" stroke-linejoin="round"/>
<path d="M56.2508 32.373C52.8348 35.749 48.2081 34.3996 48.2081 34.3996C48.2081 34.3996 46.9975 29.6743 50.4161 26.293C53.8295 22.917 58.4588 24.2663 58.4588 24.2663C58.4588 24.2663 59.6695 28.9916 56.2508 32.373Z" stroke="white" stroke-width="3" stroke-linecap="round" stroke-linejoin="round"/>
<path d="M47.292 50.2042C43.292 48.6708 42.668 44.3642 42.668 44.3642C42.668 44.3642 46.0466 41.5962 50.0466 43.1322C54.0466 44.6655 54.668 48.9722 54.668 48.9722C54.668 48.9722 51.292 51.7402 47.292 50.2042Z" stroke="white" stroke-width="3" stroke-linecap="round" stroke-linejoin="round"/>
<path d="M16.7107 50.2042C20.7107 48.6708 21.332 44.3642 21.332 44.3642C21.332 44.3642 17.9534 41.5962 13.9534 43.1322C9.95336 44.6655 9.33203 48.9722 9.33203 48.9722C9.33203 48.9722 12.7107 51.7402 16.7107 50.2042Z" stroke="white" stroke-width="3" stroke-linecap="round" stroke-linejoin="round"/>
<path d="M7.74815 32.3721C11.1641 35.7481 15.7908 34.3988 15.7908 34.3988C15.7908 34.3988 17.0015 29.6734 13.5828 26.2921C10.1668 22.9188 5.54015 24.2654 5.54015 24.2654C5.54015 24.2654 4.32948 28.9908 7.74815 32.3721Z" stroke="white" stroke-width="3" stroke-linecap="round" stroke-linejoin="round"/>
<path d="M14.6131 13.9467C13.8344 18.3893 17.3331 21.3333 17.3331 21.3333C17.3331 21.3333 21.6077 19.832 22.3864 15.3867C23.1651 10.944 19.6664 8 19.6664 8C19.6664 8 15.3917 9.50133 14.6131 13.9467Z" stroke="white" stroke-width="3" stroke-linecap="round" stroke-linejoin="round"/>
</g>
<defs>
<clipPath id="clip0_1111_4499">
<rect width="64" height="64" fill="white"/>
</clipPath>
</defs>
</svg>
