<svg width="58" height="172" viewBox="0 0 58 172" fill="none" xmlns="http://www.w3.org/2000/svg" preserveAspectRatio="none">
<path d="M1 166.568V5.29101C1 2.63709 3.53718 0.718976 6.09056 1.44254L54.0906 15.0446C55.8119 15.5324 57 17.1039 57 18.8931V151.65C57 153.402 55.8601 154.95 54.1872 155.469L6.18718 170.388C3.61269 171.188 1 169.264 1 166.568Z" fill="url(#paint0_linear_88_12)"/>
<path d="M1 166.568V5.29101C1 2.63709 3.53718 0.718976 6.09056 1.44254L54.0906 15.0446C55.8119 15.5324 57 17.1039 57 18.8931V151.65C57 153.402 55.8601 154.95 54.1872 155.469L6.18718 170.388C3.61269 171.188 1 169.264 1 166.568Z" stroke="white"/>
<path d="M1 166.568V5.29101C1 2.63709 3.53718 0.718976 6.09056 1.44254L54.0906 15.0446C55.8119 15.5324 57 17.1039 57 18.8931V151.65C57 153.402 55.8601 154.95 54.1872 155.469L6.18718 170.388C3.61269 171.188 1 169.264 1 166.568Z" stroke="url(#paint1_linear_88_12)"/>
<defs>
<linearGradient id="paint0_linear_88_12" x1="57" y1="86" x2="1" y2="86" gradientUnits="userSpaceOnUse">
<stop stop-color="#4F677A"/>
<stop offset="1" stop-color="#425666" stop-opacity="0"/>
</linearGradient>
<linearGradient id="paint1_linear_88_12" x1="1" y1="86" x2="57" y2="86" gradientUnits="userSpaceOnUse">
<stop stop-color="white"/>
<stop offset="1" stop-color="#65C9DA"/>
</linearGradient>
</defs>
</svg>
