<svg width="39" height="41" viewBox="0 0 39 41" fill="none" xmlns="http://www.w3.org/2000/svg">
    <path fill-rule="evenodd" clip-rule="evenodd" d="M19.5 34.793C27.0387 34.793 33.15 28.525 33.15 20.793C33.15 13.061 27.0387 6.79297 19.5 6.79297C11.9613 6.79297 5.85002 13.061 5.85002 20.793C5.85002 28.525 11.9613 34.793 19.5 34.793ZM19.5 36.793C28.1157 36.793 35.1 29.6295 35.1 20.793C35.1 11.9564 28.1157 4.79297 19.5 4.79297C10.8844 4.79297 3.90002 11.9564 3.90002 20.793C3.90002 29.6295 10.8844 36.793 19.5 36.793ZM16.148 13.2365C16.5287 12.846 17.1461 12.846 17.5268 13.2365L24.2048 20.0857C24.3952 20.281 24.4904 20.537 24.4904 20.793C24.4904 21.0489 24.3952 21.3049 24.2048 21.5002L17.5268 28.3494C17.1461 28.74 16.5287 28.74 16.148 28.3494C15.7672 27.9589 15.7672 27.3258 16.148 26.9352L22.1367 20.793L16.148 14.6507C15.7672 14.2602 15.7672 13.627 16.148 13.2365Z" fill="#65C9DA"/>
</svg>
