<svg width="167" height="167" viewBox="0 0 167 167" fill="none" xmlns="http://www.w3.org/2000/svg">
<path d="M0.880615 100.478L83.7049 165.649V139.417L31.2222 82.8536L83.7049 26.7006V0.0585938L0.880615 65.229V100.478ZM83.2949 100.068L166.119 166.059V139.827L113.226 82.8536L166.119 26.7006V0.468463L83.2949 66.0487V100.068Z" fill="url(#paint0_linear_41_11)"/>
<defs>
<clipPath id="bgblur_0_41_11_clip_path" transform="translate(11.1191 11.9414)"><path d="M0.880615 100.478L83.7049 165.649V139.417L31.2222 82.8536L83.7049 26.7006V0.0585938L0.880615 65.229V100.478ZM83.2949 100.068L166.119 166.059V139.827L113.226 82.8536L166.119 26.7006V0.468463L83.2949 66.0487V100.068Z"/>
</clipPath><linearGradient id="paint0_linear_41_11" x1="269.494" y1="120.756" x2="0.470716" y2="-18.5842" gradientUnits="userSpaceOnUse">
<stop stop-color="#27B0C7"/>
<stop offset="1" stop-color="#425666"/>
</linearGradient>
</defs>
</svg>
