<svg width="55" height="126" viewBox="0 0 55 126" fill="none" xmlns="http://www.w3.org/2000/svg">
<g>
<mask id="path-1-outside-1_1111_4145" maskUnits="userSpaceOnUse" x="0" y="0" width="55" height="126" fill="black">
<rect fill="white" width="55" height="126"/>
<path d="M53.22 125H35.4V28.34C25.86 32.66 20.46 33.56 1.02 34.28V22.04H2.82C18.48 22.04 32.88 15.56 39.72 1.33999H53.22V125Z"/>
</mask>
<path d="M53.22 125H35.4V28.34C25.86 32.66 20.46 33.56 1.02 34.28V22.04H2.82C18.48 22.04 32.88 15.56 39.72 1.33999H53.22V125Z" fill="url(#paint0_linear_1111_4145)" fill-opacity="0.4"/>
<path d="M53.22 125V126H54.22V125H53.22ZM35.4 125H34.4V126H35.4V125ZM35.4 28.34H36.4V26.7894L34.9875 27.429L35.4 28.34ZM1.02 34.28H0.0200024V35.3177L1.05701 35.2793L1.02 34.28ZM1.02 22.04V21.04H0.0200024V22.04H1.02ZM39.72 1.33999V0.339993H39.0913L38.8188 0.906521L39.72 1.33999ZM53.22 1.33999H54.22V0.339993H53.22V1.33999ZM53.22 125V124H35.4V125V126H53.22V125ZM35.4 125H36.4V28.34H35.4H34.4V125H35.4ZM35.4 28.34L34.9875 27.429C30.2713 29.5647 26.6194 30.8377 21.753 31.6745C16.8543 32.5168 10.7059 32.9206 0.98299 33.2807L1.02 34.28L1.05701 35.2793C10.7741 34.9194 17.0457 34.5132 22.092 33.6455C27.1706 32.7723 30.9887 31.4353 35.8125 29.251L35.4 28.34ZM1.02 34.28H2.02V22.04H1.02H0.0200024V34.28H1.02ZM1.02 22.04V23.04H2.82V22.04V21.04H1.02V22.04ZM2.82 22.04V23.04C18.741 23.04 33.5671 16.4385 40.6212 1.77347L39.72 1.33999L38.8188 0.906521C32.1929 14.6815 18.219 21.04 2.82 21.04V22.04ZM39.72 1.33999V2.33999H53.22V1.33999V0.339993H39.72V1.33999ZM53.22 1.33999H52.22V125H53.22H54.22V1.33999H53.22Z" fill="url(#paint1_radial_1111_4145)" mask="url(#path-1-outside-1_1111_4145)"/>
</g>
<defs>
<clipPath id="bgblur_0_1111_4145_clip_path" transform="translate(11.9805 11.6602)"><path d="M53.22 125H35.4V28.34C25.86 32.66 20.46 33.56 1.02 34.28V22.04H2.82C18.48 22.04 32.88 15.56 39.72 1.33999H53.22V125Z"/>
</clipPath><linearGradient id="paint0_linear_1111_4145" x1="-24" y1="61.5" x2="104" y2="61.5" gradientUnits="userSpaceOnUse">
<stop stop-color="white"/>
<stop offset="1" stop-color="white" stop-opacity="0"/>
</linearGradient>
<radialGradient id="paint1_radial_1111_4145" cx="0" cy="0" r="1" gradientUnits="userSpaceOnUse" gradientTransform="translate(104.669 78.5731) rotate(-163.041) scale(122.201 378.274)">
<stop stop-color="white"/>
<stop offset="1" stop-color="#999999" stop-opacity="0"/>
</radialGradient>
</defs>
</svg>
