<svg width="66" height="64" viewBox="0 0 66 64" fill="none" xmlns="http://www.w3.org/2000/svg">
<path d="M42.8916 8.67578C52.2253 8.67579 59.8142 16.151 59.8145 25.3926C59.8145 25.6262 59.8084 25.8586 59.7988 26.0898H59.8154V30.0078H65.998V32.0078H59.8154V36.3672H65.998V38.3672H59.8154V42.7266H65.998V44.7266H59.8154V53.3242H66V55.3242H0V53.3242H3.55859V25.4219L4.17676 25.166L30.1025 14.4434C33.2079 10.9087 37.7897 8.67578 42.8916 8.67578ZM7.99609 53.3213H40.2129V41.9043C37.0749 41.4109 34.2226 40.0654 31.9082 38.1133L7.99609 53.3213ZM42.2129 53.3213H57.8154V50.3711H42.2129V53.3213ZM5.55859 26.7578V52.501L30.417 36.6924C27.6549 33.7183 25.9668 29.7529 25.9668 25.3926C25.9669 22.5316 26.6951 19.8403 27.9766 17.4873L5.55859 26.7578ZM57.8154 33.2822C54.9633 38.5385 49.3518 42.1082 42.9053 42.1133C42.9036 42.1133 42.902 42.1133 42.9004 42.1133C42.8975 42.1133 42.8945 42.1143 42.8916 42.1143C42.6643 42.1143 42.4381 42.1084 42.2129 42.0996V48.3711H57.8154V33.2822ZM45.5781 30.3467C44.7765 30.7734 43.8612 31.0166 42.8906 31.0166C42.7238 31.0166 42.5588 31.0071 42.3955 30.9932L43.749 40.0889C47.8171 39.8617 51.4441 38.0292 53.9961 35.2256C52.797 35.2004 51.3161 34.8151 49.5283 33.7949V33.7959C48.1673 33.0207 46.8435 31.7612 45.5781 30.3467ZM30.4248 33.4863C32.5713 36.6971 35.9579 39.0317 39.917 39.8213C39.2973 38.7748 38.8458 37.304 38.8457 35.2588C38.8457 33.7464 39.3133 31.9919 39.9424 30.2012C38.9891 29.6279 38.2201 28.784 37.7432 27.7754L30.4248 33.4863ZM40.8936 34.4863C40.8624 34.7567 40.8457 35.0147 40.8457 35.2588C40.8458 36.785 41.1374 37.8294 41.4961 38.542L40.8936 34.4863ZM50.0293 31.752C50.1935 31.8633 50.3561 31.9656 50.5176 32.0576H50.5186L50.9258 32.2812C52.1437 32.9209 53.095 33.1623 53.8135 33.2148L50.0293 31.752ZM57.0703 20.7979C56.5027 21.7317 55.5498 22.7147 54.0195 23.6592L53.5586 23.9326C52.201 24.707 50.4378 25.207 48.5664 25.582C48.5285 26.723 48.1496 27.7736 47.5273 28.6416L56.2266 32.0039C57.2418 30.0149 57.8145 27.769 57.8145 25.3926C57.8144 23.7888 57.5523 22.2444 57.0703 20.7979ZM33.4473 28.4668L33.2148 28.5918C31.9012 29.3406 31.1328 30.0969 30.6816 30.75L33.8545 28.2734C33.7127 28.3358 33.5768 28.4002 33.4473 28.4668ZM29.5537 18.7861C28.5387 20.7741 27.9669 23.0186 27.9668 25.3926C27.9668 27.0315 28.2394 28.6085 28.7412 30.082C29.3464 29.0189 30.4142 27.8865 32.2246 26.8545L32.5195 26.6953C33.8063 26.0315 35.458 25.5956 37.2119 25.2646C37.2379 24.1192 37.6087 23.0612 38.2256 22.1855L29.5537 18.7861ZM42.8906 21.7734C42.0759 21.7734 41.326 22.0324 40.7188 22.4697C40.6437 22.5526 40.5578 22.6204 40.4629 22.6729C39.6929 23.3385 39.209 24.3138 39.209 25.3936C39.209 25.5285 39.2168 25.6617 39.2314 25.793C39.2613 25.8886 39.2758 25.9857 39.2764 26.083C39.509 27.2705 40.3302 28.2558 41.4365 28.7236C41.5118 28.7426 41.583 28.7707 41.6504 28.8057C42.0374 28.9416 42.4545 29.0166 42.8906 29.0166C43.6877 29.0166 44.4219 28.7667 45.0225 28.3457C45.0983 28.2644 45.1859 28.1984 45.2812 28.1475C46.0721 27.4814 46.5721 26.4929 46.5723 25.3936C46.5723 25.282 46.5658 25.1716 46.5557 25.0625C46.5225 24.9561 46.5078 24.8475 46.5107 24.7393C46.2847 23.5276 45.444 22.5195 44.3105 22.0527C44.2918 22.0458 44.2731 22.0392 44.2549 22.0312C43.8335 21.8657 43.3736 21.7735 42.8906 21.7734ZM45.9541 10.9863C46.5325 12.0288 46.9355 13.4921 46.9355 15.5332C46.9355 17.081 46.4918 18.8386 45.8877 20.6201C46.8313 21.2011 47.5903 22.0485 48.0576 23.0576L55.3574 17.3047C53.2273 14.1179 49.8756 11.793 45.9541 10.9863ZM52.0391 22.4668C52.2247 22.3798 52.4013 22.2901 52.5674 22.1953H52.5684L52.9688 21.958C54.1489 21.2302 54.8363 20.533 55.2383 19.9453L52.0391 22.4668ZM42.0381 10.7002C37.9361 10.9282 34.2808 12.7883 31.7246 15.6299C32.8448 15.6225 34.2072 15.9123 35.8057 16.7451L36.2559 16.9902L36.2568 16.9912L36.5449 17.1641C37.7741 17.9356 38.9831 19.1318 40.1533 20.4678C40.9663 20.0248 41.8999 19.7734 42.8906 19.7734C43.076 19.7734 43.2594 19.7825 43.4404 19.7998L42.0381 10.7002ZM35.8516 19.1074C35.653 18.9656 35.4584 18.8376 35.2656 18.7275V18.7285C33.9619 17.986 32.9184 17.7043 32.1182 17.6426L35.8516 19.1074ZM44.9043 16.1699C44.9237 15.9502 44.9355 15.7377 44.9355 15.5332C44.9355 13.8781 44.6342 12.7971 44.2764 12.0918L44.9043 16.1699Z" fill="#324655"/>
</svg>
