<svg width="64" height="64" viewBox="0 0 64 64" fill="none" xmlns="http://www.w3.org/2000/svg">
<path d="M62.2895 20.5601L60.1095 13.8401C60.0424 13.6383 59.9128 13.4632 59.7395 13.3401L54.0295 9.1899C53.8579 9.0657 53.6513 8.99931 53.4394 9.00001H46.3695C46.1611 9.00141 45.9583 9.0677 45.7895 9.1899L40.7095 12.8799L37.0195 10.1899C36.8479 10.0657 36.6413 9.99931 36.4294 10H33.5195L32.7695 12H36.1095L39.4995 14.47L37.4995 20.5601C37.4395 20.7624 37.4395 20.9776 37.4995 21.1799L39.6894 27.8999C39.7538 28.1003 39.8798 28.2753 40.0494 28.3999L45.7695 32.5501C45.9371 32.6758 46.14 32.7458 46.3495 32.75H51.2295L47.0594 45.5701L36.1595 53.49H34.1595L34.0995 55.49H36.4595C36.6713 55.4908 36.8778 55.4243 37.0494 55.3001L48.4795 47C48.6491 46.8754 48.7751 46.7004 48.8395 46.5L53.2095 33.0501C53.2245 32.9506 53.2245 32.8494 53.2095 32.75H53.4194C53.6324 32.7479 53.8392 32.6778 54.0095 32.5501L59.7195 28.3999C59.8928 28.2768 60.0224 28.1017 60.0895 27.8999L62.2695 21.1799C62.3462 20.9815 62.3532 20.763 62.2895 20.5601ZM58.2895 26.97L53.0895 30.75H46.6794L41.4895 26.97L39.4895 20.8699L41.1595 15.7L41.4695 14.77L42.3795 14.1099L46.6595 11H53.0694L58.2695 14.77L60.2695 20.8699L58.2895 26.97Z" fill="#324655"/>
<path d="M11.7207 45.5701L7.5507 32.75L11.7207 19.9199L22.6208 12H24.2307L24.9807 10H22.3007C22.0889 9.99931 21.8823 10.0657 21.7107 10.1899L10.2808 18.5C10.1074 18.6231 9.9778 18.7982 9.9108 19L5.5507 32.4399C5.4805 32.6372 5.4805 32.8528 5.5507 33.0501L9.9108 46.5C9.9824 46.6994 10.1111 46.8732 10.2808 47L21.7107 55.3001C21.8823 55.4243 22.0889 55.4908 22.3007 55.49H26.0707L26.1308 53.49H22.6208L11.7207 45.5701Z" fill="#324655"/>
<path d="M32.7998 40.3985L26.1898 35.8188L31.0099 29.8189C31.1494 29.6423 31.2252 29.4237 31.2252 29.1987C31.2252 28.9736 31.1494 28.7554 31.0099 28.5788L25.8699 21.9187L30.3098 9.96875H28.2299L23.8599 21.6786C23.791 21.8419 23.7667 22.0205 23.7896 22.1962C23.8124 22.372 23.8816 22.5384 23.9899 22.6786L28.9899 29.1786L23.9899 35.3685C23.9039 35.4755 23.8408 35.5993 23.8047 35.7318C23.7686 35.8643 23.7602 36.0027 23.7799 36.1386C23.7994 36.2747 23.8467 36.4053 23.919 36.5224C23.9912 36.6395 24.0869 36.7404 24.1999 36.8188L30.5299 41.1987L24.6898 45.3787C24.5675 45.472 24.4684 45.5924 24.4002 45.7301C24.3319 45.868 24.2965 46.0198 24.2965 46.1736C24.2965 46.3275 24.3319 46.4792 24.4002 46.6171C24.4684 46.7551 24.5675 46.8754 24.6898 46.9688L29.2899 50.6485L29.1499 55.4587H31.1499L31.3098 50.2286C31.3153 50.0718 31.2838 49.9157 31.2178 49.7733C31.1518 49.6308 31.0531 49.506 30.9298 49.4086L26.9298 46.2286L32.8499 41.9987C32.9799 41.9063 33.0859 41.784 33.1591 41.6423C33.2322 41.5005 33.2704 41.3433 33.2704 41.1838C33.2704 41.0243 33.2322 40.8667 33.1591 40.7249C33.0859 40.5831 32.9799 40.4609 32.8499 40.3685L32.7998 40.3985Z" fill="#324655"/>
</svg>
