<svg width="64" height="64" viewBox="0 0 64 64" fill="none" xmlns="http://www.w3.org/2000/svg">
<path d="M5.04055 26.6409H29.4005C29.4635 26.6507 29.5275 26.6507 29.5905 26.6409L52.7605 22.1209L50.6305 24.1909C50.4443 24.3783 50.3397 24.6317 50.3397 24.8959C50.3397 25.1601 50.4443 25.4135 50.6305 25.6009C50.7223 25.6972 50.8323 25.7742 50.9542 25.8274C51.0761 25.8806 51.2075 25.9091 51.3405 25.9109C51.6014 25.9125 51.8527 25.812 52.0405 25.6309L56.6705 21.1309C56.7894 21.0164 56.878 20.8743 56.9286 20.7173C56.9792 20.5603 56.9901 20.3932 56.9605 20.2309C56.9294 20.0702 56.8593 19.9197 56.7565 19.7924C56.6536 19.6651 56.5211 19.565 56.3705 19.5009L50.4505 16.9309C50.2065 16.8248 49.9303 16.82 49.6828 16.9175C49.4352 17.015 49.2366 17.2069 49.1305 17.4509C49.0244 17.6949 49.0196 17.9711 49.1171 18.2186C49.2146 18.4662 49.4065 18.6648 49.6505 18.7709L52.7205 20.1009L29.3204 24.6609H5.06055C4.79535 24.6609 4.54095 24.7662 4.35345 24.9538C4.16595 25.1413 4.06055 25.3957 4.06055 25.6609C4.06055 25.9261 4.16595 26.1805 4.35345 26.3681C4.54095 26.5556 4.79535 26.6609 5.06055 26.6609L5.04055 26.6409Z" fill="#324655"/>
<path d="M5.04 20.0629H29.4C29.516 20.0627 29.631 20.0424 29.74 20.0028L53.13 11.4828L51.3 14.1028C51.1492 14.3204 51.0908 14.5889 51.1377 14.8495C51.1846 15.11 51.3329 15.3414 51.55 15.4928C51.7173 15.6095 51.9161 15.6724 52.12 15.6728C52.2812 15.6726 52.44 15.6333 52.5828 15.5585C52.7255 15.4836 52.848 15.3753 52.9399 15.2428L56.63 9.95292C56.7262 9.81832 56.7875 9.66202 56.8085 9.49792C56.8294 9.33392 56.8093 9.16722 56.75 9.01282C56.6895 8.85972 56.592 8.72402 56.4664 8.61752C56.3408 8.51112 56.191 8.43742 56.03 8.40282L49.73 7.02282C49.5987 6.99462 49.4631 6.99252 49.3309 7.01672C49.1988 7.04092 49.0728 7.09082 48.96 7.16372C48.8471 7.23662 48.7497 7.33102 48.6733 7.44152C48.597 7.55202 48.5432 7.67652 48.515 7.80792C48.4868 7.93922 48.4846 8.07482 48.5088 8.20692C48.533 8.33902 48.583 8.46502 48.6559 8.57792C48.7288 8.69072 48.8232 8.78822 48.9337 8.86452C49.0442 8.94082 49.1687 8.99462 49.3 9.02282L52.3 9.69292L29.1801 18.1128H5C4.7348 18.1128 4.4804 18.2182 4.2929 18.4058C4.1053 18.5933 4 18.8476 4 19.1128C4 19.378 4.1053 19.6324 4.2929 19.8199C4.4804 20.0075 4.7348 20.1128 5 20.1128L5.04 20.0629Z" fill="#324655"/>
<path d="M56.85 31.4128L51.48 27.8228C51.2599 27.6927 50.9985 27.6518 50.7493 27.7085C50.5 27.7653 50.2819 27.9152 50.1398 28.1277C49.9977 28.3402 49.9424 28.5991 49.9852 28.8511C50.028 29.1031 50.1657 29.3291 50.37 29.4827L53 31.2427H5C4.7348 31.2427 4.4804 31.3482 4.2929 31.5357C4.1053 31.7232 4 31.9775 4 32.2427C4 32.5079 4.1053 32.7623 4.2929 32.9499C4.4804 33.1374 4.7348 33.2427 5 33.2427H53L50.37 34.9927C50.2609 35.0662 50.1673 35.1604 50.0946 35.2701C50.022 35.3797 49.9717 35.5026 49.9467 35.6318C49.9216 35.7609 49.9222 35.8936 49.9485 36.0225C49.9748 36.1514 50.0263 36.2738 50.1 36.3827C50.1917 36.5184 50.3154 36.6296 50.4601 36.7063C50.6048 36.7831 50.7663 36.823 50.9301 36.8228C51.1251 36.8242 51.3162 36.7686 51.48 36.6628L56.85 33.0728C56.9857 32.9811 57.0969 32.8574 57.1736 32.7127C57.2503 32.568 57.2903 32.4065 57.29 32.2427C57.2903 32.0789 57.2503 31.9176 57.1736 31.7729C57.0969 31.6282 56.9857 31.5045 56.85 31.4128Z" fill="#324655"/>
<path d="M52.021 39.0825C51.9298 38.9793 51.8182 38.8959 51.6934 38.8379C51.5685 38.7798 51.4331 38.7481 51.2954 38.7448C51.1578 38.7416 51.0208 38.7668 50.8933 38.8189C50.7659 38.871 50.6506 38.9488 50.5546 39.0476C50.4586 39.1463 50.384 39.2639 50.3356 39.3928C50.2871 39.5217 50.2658 39.6592 50.273 39.7967C50.2801 39.9342 50.3156 40.0688 50.3772 40.192C50.4388 40.3151 50.5253 40.4242 50.631 40.5124L52.761 42.5825L29.591 38.0625H29.401H5.04102C4.77582 38.0625 4.52142 38.1678 4.33392 38.3553C4.14632 38.5428 4.04102 38.7972 4.04102 39.0625C4.04102 39.3277 4.14632 39.582 4.33392 39.7695C4.52142 39.957 4.77582 40.0625 5.04102 40.0625H29.301L52.701 44.6324L49.631 45.9525C49.5099 46.0047 49.4004 46.0803 49.3086 46.175C49.2169 46.2697 49.1447 46.3816 49.0963 46.5042C49.048 46.6269 49.0245 46.758 49.027 46.8899C49.0295 47.0217 49.058 47.1517 49.111 47.2724C49.1891 47.4513 49.3177 47.6034 49.4812 47.71C49.6447 47.8167 49.8359 47.8731 50.031 47.8724C50.1681 47.87 50.3036 47.8429 50.4311 47.7924L56.351 45.2324C56.5028 45.1674 56.6362 45.066 56.7392 44.937C56.8422 44.8079 56.9116 44.6554 56.9413 44.493C56.971 44.3306 56.9601 44.1633 56.9094 44.0062C56.8588 43.8491 56.77 43.707 56.651 43.5925L52.021 39.0825Z" fill="#324655"/>
<path d="M52.9409 49.4136C52.8694 49.2983 52.7752 49.1989 52.664 49.1212C52.5527 49.0435 52.4267 48.9892 52.2938 48.9617C52.161 48.9343 52.024 48.9342 51.891 48.9613C51.7581 48.9885 51.632 49.0424 51.5205 49.1199C51.4091 49.1974 51.3146 49.2967 51.2428 49.4117C51.171 49.5268 51.1233 49.6555 51.1028 49.7895C51.0823 49.9238 51.0893 50.0606 51.1233 50.192C51.1574 50.3233 51.2179 50.4464 51.301 50.5536L53.131 53.1837L29.741 44.6536C29.632 44.6141 29.517 44.5938 29.401 44.5938H5.04102C4.77582 44.5938 4.52142 44.699 4.33392 44.8865C4.14632 45.0741 4.04102 45.3284 4.04102 45.5938C4.04102 45.859 4.14632 46.1132 4.33392 46.3007C4.52142 46.4883 4.77582 46.5938 5.04102 46.5938H29.221L52.341 55.0236L49.341 55.6837C49.212 55.712 49.09 55.7655 48.9818 55.8413C48.8737 55.9171 48.7816 56.0137 48.711 56.1253C48.6403 56.2369 48.5924 56.3612 48.5701 56.4914C48.5478 56.6216 48.5515 56.7549 48.581 56.8836C48.6318 57.1092 48.7592 57.3101 48.9416 57.4524C49.1239 57.5946 49.3498 57.6693 49.581 57.6636H49.801L56.101 56.2736C56.2619 56.2391 56.4119 56.1653 56.5375 56.0589C56.6631 55.9525 56.7604 55.8167 56.8209 55.6636C56.8802 55.5093 56.9004 55.3426 56.8794 55.1785C56.8585 55.0145 56.7971 54.8582 56.701 54.7237L52.9409 49.4136Z" fill="#324655"/>
</svg>
