<svg width="167" height="167" viewBox="0 0 167 167" fill="none" xmlns="http://www.w3.org/2000/svg">
<path d="M166.119 100.478L83.2951 165.649V139.417L135.778 82.8536L83.2951 26.7006V0.0585938L166.119 65.229V100.478ZM83.7051 100.068L0.880859 166.059V139.827L53.7736 82.8536L0.880859 26.7006V0.468463L83.7051 66.0487V100.068Z" fill="url(#paint0_linear_41_12)"/>
<defs>
<clipPath id="bgblur_0_41_12_clip_path" transform="translate(11.1191 11.9414)"><path d="M166.119 100.478L83.2951 165.649V139.417L135.778 82.8536L83.2951 26.7006V0.0585938L166.119 65.229V100.478ZM83.7051 100.068L0.880859 166.059V139.827L53.7736 82.8536L0.880859 26.7006V0.468463L83.7051 66.0487V100.068Z"/>
</clipPath><linearGradient id="paint0_linear_41_12" x1="-102.494" y1="120.756" x2="166.529" y2="-18.5842" gradientUnits="userSpaceOnUse">
<stop stop-color="#27B0C7"/>
<stop offset="1" stop-color="#425666"/>
</linearGradient>
</defs>
</svg>
