<svg width="34" height="34" viewBox="0 0 34 34" fill="none" xmlns="http://www.w3.org/2000/svg">
<path d="M16.9658 4.42188C23.8947 4.4219 29.5117 10.0389 29.5117 16.9678C29.5117 23.8966 23.8947 29.5136 16.9658 29.5137C10.037 29.5137 4.41995 23.8966 4.41992 16.9678C4.41992 10.0389 10.0369 4.42188 16.9658 4.42188ZM16.8311 9.18164C14.7543 9.18164 14.4935 9.19083 13.6777 9.22656C12.865 9.26231 12.3065 9.39401 11.8223 9.58203C11.3083 9.77622 10.8476 10.0751 10.4648 10.4668C10.0764 10.8496 9.77439 11.3135 9.58301 11.8213C9.39502 12.3083 9.26327 12.864 9.22754 13.6768C9.18851 14.4958 9.17969 14.756 9.17969 16.833C9.17969 18.9101 9.18889 19.1708 9.22461 19.9863C9.26034 20.7993 9.39153 21.3589 9.58008 21.8428C9.77428 22.3567 10.0764 22.8174 10.4648 23.2002C10.8476 23.5885 11.3111 23.8902 11.8193 24.0811C12.3064 24.2691 12.862 24.4008 13.6748 24.4365C14.4906 24.4727 14.751 24.4824 16.8281 24.4824C18.9053 24.4824 19.1654 24.4727 19.9814 24.4365C20.7945 24.4008 21.3536 24.2691 21.8379 24.0811H21.8369C22.8653 23.6837 23.6788 22.8702 24.0762 21.8418C24.2642 21.3548 24.3959 20.7991 24.4316 19.9863C24.4401 19.7959 24.447 19.6359 24.4531 19.4756V14.0439C24.4489 13.9306 24.4436 13.8123 24.4375 13.6797C24.4018 12.8667 24.2701 12.3076 24.082 11.8232C23.8878 11.3095 23.5884 10.849 23.1973 10.4668C22.8147 10.0782 22.3517 9.7768 21.8438 9.58594C21.3566 9.39785 20.8003 9.26523 19.9873 9.22949C19.1683 9.19047 18.9079 9.18164 16.8311 9.18164ZM16.8369 10.5723C18.8778 10.5723 19.1237 10.5805 19.9277 10.6162C20.6746 10.6492 21.0778 10.7755 21.3467 10.8799C21.6782 11.0026 21.9806 11.1963 22.2256 11.4502C22.4794 11.6984 22.6737 11.9972 22.7959 12.3291C22.9003 12.5981 23.0257 13.0047 23.0586 13.749C23.0943 14.5557 23.1035 14.798 23.1035 16.8389C23.1035 18.8801 23.0943 19.1199 23.0586 19.9268C23.0257 20.6735 22.9003 21.0768 22.7959 21.3457C22.5387 22.0124 22.01 22.5421 21.3438 22.7988C21.0748 22.9032 20.6682 23.0286 19.9238 23.0615C19.1171 23.0973 18.8748 23.1064 16.834 23.1064L14.8242 23.0977C14.4075 23.091 14.1451 23.0794 13.7432 23.0615C12.9964 23.0286 12.5932 22.9032 12.3242 22.7988C11.9929 22.6762 11.6907 22.4823 11.4453 22.2285C11.1914 21.9803 10.9963 21.6815 10.874 21.3496C10.7696 21.0806 10.6442 20.6736 10.6113 19.9297C10.5756 19.1229 10.5664 18.8805 10.5664 16.8389C10.5664 14.7976 10.5756 14.5524 10.6113 13.749C10.6442 13.0018 10.7696 12.5981 10.874 12.3291C10.9968 11.9971 11.191 11.6952 11.4482 11.4502C11.6959 11.1964 11.9949 11.0026 12.3262 10.8799C12.5951 10.7755 13.0023 10.6491 13.7461 10.6162C14.553 10.5805 14.7957 10.5723 16.8369 10.5723ZM16.8311 12.9023C14.6611 12.9025 12.9004 14.663 12.9004 16.833C12.9004 19.0029 14.6611 20.7635 16.8311 20.7637C19.0011 20.7637 20.7617 19.003 20.7617 16.833C20.7617 14.6629 19.0006 12.9023 16.8311 12.9023ZM16.8311 14.2832C18.2388 14.2832 19.3806 15.4244 19.3809 16.832C19.3809 18.2399 18.2389 19.3818 16.8311 19.3818C15.4233 19.3817 14.2822 18.2398 14.2822 16.832C14.2824 15.4245 15.4235 14.2833 16.8311 14.2832ZM20.917 11.8301C20.4101 11.8301 19.9991 12.2407 19.999 12.7471C19.999 13.2535 20.4106 13.665 20.917 13.665C21.4232 13.6648 21.834 13.2538 21.834 12.7471C21.8339 12.2404 21.4237 11.8303 20.917 11.8301Z" fill="white"/>
</svg>
