<svg width="64" height="64" viewBox="0 0 64 64" fill="none" xmlns="http://www.w3.org/2000/svg">
<path d="M8 24.0013C8 22.5868 8.5619 21.2303 9.5621 20.2301C10.5623 19.2299 11.9188 18.668 13.3333 18.668H50.6667C52.0812 18.668 53.4377 19.2299 54.4379 20.2301C55.4381 21.2303 56 22.5868 56 24.0013V48.0013C56 49.4158 55.4381 50.7723 54.4379 51.7725C53.4377 52.7727 52.0812 53.3346 50.6667 53.3346H13.3333C11.9188 53.3346 10.5623 52.7727 9.5621 51.7725C8.5619 50.7723 8 49.4158 8 48.0013V24.0013Z" stroke="#324655" stroke-width="3" stroke-linecap="round" stroke-linejoin="round"/>
<path d="M21.332 18.6667V13.3333C21.332 11.9188 21.8939 10.5623 22.8941 9.5621C23.8943 8.5619 25.2509 8 26.6654 8H37.332C38.7465 8 40.1031 8.5619 41.1033 9.5621C42.1035 10.5623 42.6654 11.9188 42.6654 13.3333V18.6667" stroke="#324655" stroke-width="3" stroke-linecap="round" stroke-linejoin="round"/>
<path d="M32 32V32.0267" stroke="#324655" stroke-width="3" stroke-linecap="round" stroke-linejoin="round"/>
<path d="M8 34.668C15.4442 38.4191 23.6641 40.3731 32 40.3731C40.3359 40.3731 48.5558 38.4191 56 34.668" stroke="#324655" stroke-width="3" stroke-linecap="round" stroke-linejoin="round"/>
</svg>
