<svg width="64" height="64" viewBox="0 0 64 64" fill="none" xmlns="http://www.w3.org/2000/svg">
<path d="M8 45.3346C8 44.6274 8.28095 43.9491 8.78105 43.449C9.28115 42.9489 9.95942 42.668 10.6667 42.668H13.3333C14.0406 42.668 14.7189 42.9489 15.219 43.449C15.719 43.9491 16 44.6274 16 45.3346V53.3346C16 54.0419 15.719 54.7202 15.219 55.2203C14.7189 55.7204 14.0406 56.0013 13.3333 56.0013H10.6667C9.95942 56.0013 9.28115 55.7204 8.78105 55.2203C8.28095 54.7202 8 54.0419 8 53.3346V45.3346Z" stroke="white" stroke-width="3" stroke-linecap="round" stroke-linejoin="round"/>
<path d="M16 53.3334C16 54.0407 16.281 54.719 16.781 55.2191C17.2811 55.7192 17.9594 56.0001 18.6667 56.0001H28.6827C29.2564 56.0001 29.8148 55.8152 30.275 55.4727C30.7352 55.1301 31.0727 54.6483 31.2373 54.0988L34.4373 46.0988C34.6773 45.2908 34.792 44.4188 34.288 43.7414C33.7867 43.0641 32.8427 42.6668 32 42.6668H26.6667V36.0881C26.6663 35.4588 26.4636 34.8462 26.0885 34.3409C25.7133 33.8357 25.1856 33.4644 24.5832 33.2821C23.9809 33.0997 23.3359 33.1159 22.7435 33.3283C22.1511 33.5407 21.6426 33.938 21.2933 34.4614L16 42.6668V53.3334Z" stroke="white" stroke-width="3" stroke-linecap="round" stroke-linejoin="round"/>
<path d="M37.333 8V18.6667C37.333 19.3739 37.614 20.0522 38.1141 20.5523C38.6142 21.0524 39.2924 21.3333 39.9997 21.3333H50.6663" stroke="white" stroke-width="3" stroke-linecap="round" stroke-linejoin="round"/>
<path d="M13.333 32.2667V13.3333C13.333 11.9188 13.8949 10.5623 14.8951 9.5621C15.8953 8.5619 17.2519 8 18.6663 8H37.333L50.6663 21.3333V50.6667C50.6663 52.0812 50.1044 53.4377 49.1042 54.4379C48.104 55.4381 46.7475 56 45.333 56H39.1997" stroke="white" stroke-width="3" stroke-linecap="round" stroke-linejoin="round"/>
</svg>
